<svg xmlns="http://www.w3.org/2000/svg" viewBox="0 0 253 161">
  <defs>
    <style>
      .cls-1 {
        fill: none;
        stroke: #e0e0e0;
        stroke-width: 2px;
      }

      .cls-1, .cls-2, .cls-3, .cls-4 {
        fill-rule: evenodd;
      }

      .cls-2 {
        fill: #e0e0e0;
      }

      .cls-3 {
        fill: #f5f5f5;
      }

      .cls-4 {
        fill: #ffe7e7;
      }

      .cls-5 {
        fill: #ff3838;
      }
    </style>
  </defs>
  <g id="shenfz-zheng" transform="translate(-1.153 -1.097)">
    <path id="路径_1" data-name="路径 1" class="cls-1" d="M16,2H239a14,14,0,0,1,14,14V147a14,14,0,0,1-14,14H16A14,14,0,0,1,2,147V16A14,14,0,0,1,16,2Z" transform="translate(0.153 0.097)"/>
    <path id="路径_2" data-name="路径 2" class="cls-2" d="M375.871,72.99a15.846,15.846,0,0,0,7.008.5c3.876-.6,14.28-3.079,19.023,0s7.965,4.386,7.008,15.519c1.827,1.311,4.394,5.381-.5,8.51-1.021,4.237-3.768,14.668-14.017,15.018S381.283,102.4,380.377,98.021c-3.612-.938-3.827-4-3.5-6.007a4.617,4.617,0,0,1,2.5-3s.308-7.321,1-8.51C377.687,78.7,375.134,74.343,375.871,72.99Z" transform="translate(-186.949 -35.004)"/>
    <path id="路径_3" data-name="路径 3" class="cls-2" d="M361.85,180.525l.249-8.871A11.968,11.968,0,0,1,373.953,160h6.037l4.962,9.512.5-7.509-1-2h5.507l-1,2,.5,7.509L394.421,160h6.43a11.968,11.968,0,0,1,11.854,11.654l.249,8.871Z" transform="translate(-180.011 -79.014)"/>
    <path id="路径_4" data-name="路径 4" class="cls-3" d="M37.589,70.464h76.892V82.671H37.589Z" transform="translate(-17.773 -34.235)"/>
    <path id="路径_5" data-name="路径 5" class="cls-2" d="M37.589,123.1H60.094v12.207H37.589Z" transform="translate(-17.773 -60.557)"/>
    <path id="路径_6" data-name="路径 6" class="cls-3" d="M93.783,123.1h59.544v12.207H93.783Z" transform="translate(-45.909 -60.557)"/>
    <path id="路径_7" data-name="路径 7" class="cls-3" d="M36.653,175.506H162.774v12.207H36.653Z" transform="translate(-17.305 -86.762)"/>
    <path id="路径_8" data-name="路径 8" class="cls-2" d="M37.589,232.042H71.346v12.207H37.589Z" transform="translate(-17.773 -115.033)"/>
    <path id="路径_9" data-name="路径 9" class="cls-3" d="M113.451,232.042H288.8v12.207H113.451Z" transform="translate(-55.963 -115.033)"/>
    <path id="路径_10" data-name="路径 10" class="cls-4" d="M225.034,104A28.034,28.034,0,1,1,197,132.034,28.034,28.034,0,0,1,225.034,104Z" transform="translate(-97.347 -50.403)"/>
    <g id="组_2" data-name="组 2" transform="translate(113.653 70.597)">
      <path id="路径_11" data-name="路径 11" class="cls-5" d="M26.546,3.387H21.463C19.833,3.387,19.19,0,17.508,0H10.166C9.038,0,8.47,3.387,6.779,3.387H1.7A1.7,1.7,0,0,0,0,5.083V19.772a1.7,1.7,0,0,0,1.7,1.7H26.551a1.7,1.7,0,0,0,1.7-1.7V5.083a1.7,1.7,0,0,0-1.7-1.7ZM14.121,18.645A6.779,6.779,0,1,1,20.9,11.866a6.776,6.776,0,0,1-6.779,6.779ZM22.316,6.779a.848.848,0,1,1,.848-.848.848.848,0,0,1-.848.848ZM5.647,1.7a.568.568,0,0,0-.568-.568h-1.7a.568.568,0,0,0-.568.568v.568H5.637c.009,0,.009-.261.009-.568Zm8.474,5.083A5.083,5.083,0,1,0,19.2,11.861a5.086,5.086,0,0,0-5.083-5.083Zm0,0"/>
    </g>
  </g>
</svg>
