<svg xmlns="http://www.w3.org/2000/svg" viewBox="0 0 253 161">
  <defs>
    <style>
      .cls-1 {
        fill: none;
        stroke: #797c8f;
        stroke-width: 2px;
      }

      .cls-1, .cls-2, .cls-3 {
        fill-rule: evenodd;
      }

      .cls-2 {
        fill: #797c8f;
      }

      .cls-3 {
        fill: #ffe7e7;
      }

      .cls-4 {
        fill: #ff3838;
      }
    </style>
  </defs>
  <g id="shenfz-fanblack" transform="translate(-1 -1)">
    <path id="路径_12" data-name="路径 12" class="cls-1" d="M16,2H239a14,14,0,0,1,14,14V147a14,14,0,0,1-14,14H16A14,14,0,0,1,2,147V16A14,14,0,0,1,16,2Z"/>
    <path id="路径_13" data-name="路径 13" class="cls-2" d="M213.865,50H338.432V62H213.865Z" transform="translate(-105.933 -24)"/>
    <path id="路径_14" data-name="路径 14" class="cls-2" d="M213,93H337.568v12H213Z" transform="translate(-105.5 -45.5)"/>
    <path id="路径_15" data-name="路径 15" class="cls-2" d="M43,168H253v18H43Z" transform="translate(-20.5 -83)"/>
    <path id="路径_17" data-name="路径 17" class="cls-2" d="M43,228H253v18H43Z" transform="translate(-20.5 -113)"/>
    <path id="路径_18" data-name="路径 18" class="cls-3" d="M225,104a28,28,0,1,1-28,28A28,28,0,0,1,225,104Z" transform="translate(-97.5 -51)"/>
    <path id="路径_19" data-name="路径 19" class="cls-2" d="M37.6,38.088a5.19,5.19,0,0,1,.118.544l.46,2.955c.444,2.848-1.373,5.275-4.081,5.275H10.034c-2.708,0-4.524-2.427-4.081-5.275l.46-2.955a5.239,5.239,0,0,1,.163-.7,22.171,22.171,0,1,1,31.025.159ZM22.171,5.635A16.53,16.53,0,0,0,9.188,32.4l.451-1.41h6.229V29.363h-.593l.741-1.335h.741l.593-1.631H22.1v8.3H11.389a16.517,16.517,0,0,0,21.563,0H22.1V26.4h4.746l.593,1.631h.741l.741,1.335h-.593v1.631h6.229l.494,1.544a16.532,16.532,0,0,0-12.877-26.9Zm9.984,11.122-1.406-1.035-1.436.994.571-1.628-1.41-1.029,1.759.028.564-1.631.516,1.646,1.759.021-1.44.989Zm-6.124,3.655-.809,1.536-.237-1.7-1.7-.268,1.555-.778-.244-1.7,1.2,1.222,1.552-.784L26.53,19.47l1.2,1.217Zm-1.166-5.37-2.751-2.068L19.3,14.962l1.117-3.255L17.662,9.65l3.441.056,1.1-3.26,1.01,3.29,3.441.043-2.817,1.977Zm-6.109,3.9,1.215-1.226-.247,1.707L21.3,20.2l-1.726.268-.24,1.708-.82-1.541-1.725.275,1.219-1.221-.826-1.538Zm-3.8-2.185-1.406-1.035-1.436.994.571-1.628-1.41-1.029,1.759.028.564-1.631L14.11,14.1l1.759.021-1.44.989Z" transform="translate(35.213 24.531)"/>
    <g id="组_4" data-name="组 4" transform="translate(113.5 70.5)">
      <path id="路径_11" data-name="路径 11" class="cls-4" d="M26.546,3.387H21.463C19.833,3.387,19.19,0,17.508,0H10.166C9.038,0,8.47,3.387,6.779,3.387H1.7A1.7,1.7,0,0,0,0,5.083V19.772a1.7,1.7,0,0,0,1.7,1.7H26.551a1.7,1.7,0,0,0,1.7-1.7V5.083a1.7,1.7,0,0,0-1.7-1.7ZM14.121,18.645A6.779,6.779,0,1,1,20.9,11.866a6.776,6.776,0,0,1-6.779,6.779ZM22.316,6.779a.848.848,0,1,1,.848-.848.848.848,0,0,1-.848.848ZM5.647,1.7a.568.568,0,0,0-.568-.568h-1.7a.568.568,0,0,0-.568.568v.568H5.637c.009,0,.009-.261.009-.568Zm8.474,5.083A5.083,5.083,0,1,0,19.2,11.861a5.086,5.086,0,0,0-5.083-5.083Zm0,0"/>
    </g>
  </g>
</svg>
