<?xml version="1.0" encoding="utf-8"?>
<!-- Generator: Adobe Illustrator 21.0.0, SVG Export Plug-In . SVG Version: 6.00 Build 0)  -->
<svg version="1.1" id="图层_1" xmlns="http://www.w3.org/2000/svg" xmlns:xlink="http://www.w3.org/1999/xlink" x="0px" y="0px"
	 viewBox="0 0 48 48" style="enable-background:new 0 0 48 48;" xml:space="preserve">
<style type="text/css">
	.st0{fill:#29B1CC;}
</style>
<g>
	<g>
		<path class="st0" d="M26.5,44.1c-6,0-11.2-2.1-15.4-6.4c-4.3-4.3-6.4-9.4-6.4-15.4c0-4.3,1.2-8.3,3.7-12.1
			c2.4-3.7,5.6-6.4,9.6-8.2c0.2-0.2,0.5-0.2,0.8,0.1C19,2.3,19,2.6,18.9,3c-1,2.4-1.5,4.8-1.5,7.3c0,5.6,2,10.4,6,14.4
			c4,4,8.8,6,14.4,6c3.1,0,5.7-0.5,8-1.4c0.2-0.2,0.5-0.2,0.7,0.1c0.3,0.2,0.4,0.5,0.3,0.8c-1.6,4.3-4.3,7.7-8,10.2
			C35.2,42.8,31,44.1,26.5,44.1L26.5,44.1z M26.5,44.1"/>
	</g>
</g>
</svg>
