<svg xmlns="http://www.w3.org/2000/svg" viewBox="0 0 8 11">
  <defs>
    <style>
      .cls-1 {
        fill: none;
        opacity: 0.11;
      }

      .cls-2 {
        fill: #999;
      }
    </style>
  </defs>
  <g id="筛选1" transform="translate(-39 -131)">
    <rect id="矩形_118" data-name="矩形 118" class="cls-1" width="8" height="11" transform="translate(39 131)"/>
    <g id="组_374" data-name="组 374" transform="translate(1)">
      <path id="路径_150" data-name="路径 150" class="cls-2" d="M6.063,36.2H.14a.131.131,0,0,0-.092.215l2.931,3.391a.176.176,0,0,0,.261,0L6.155,36.4A.122.122,0,0,0,6.063,36.2Z" transform="translate(38.986 101.35)"/>
      <path id="路径_149" data-name="路径 149" class="cls-2" d="M.1,3.673H6.025a.131.131,0,0,0,.092-.215L3.187.083a.176.176,0,0,0-.261,0L.011,3.473A.118.118,0,0,0,.1,3.673Z" transform="translate(39.023 131.975)"/>
    </g>
  </g>
</svg>
