<svg xmlns="http://www.w3.org/2000/svg" xmlns:xlink="http://www.w3.org/1999/xlink" viewBox="0 0 95 95">
  <defs>
    <style>
      .cls-1 {
        fill: #cfcfcf;
      }

      .cls-2 {
        fill: #fff;
      }

      .cls-3 {
        filter: url(#椭圆_1);
      }
    </style>
    <filter id="椭圆_1" x="0" y="0" width="95" height="95" filterUnits="userSpaceOnUse">
      <feOffset input="SourceAlpha"/>
      <feGaussianBlur stdDeviation="7.5" result="blur"/>
      <feFlood flood-opacity="0.122"/>
      <feComposite operator="in" in2="blur"/>
      <feComposite in="SourceGraphic"/>
    </filter>
  </defs>
  <g id="weitianjia" transform="translate(22.5 22.5)">
    <g class="cls-3" transform="matrix(1, 0, 0, 1, -22.5, -22.5)">
      <circle id="椭圆_1-2" data-name="椭圆 1" class="cls-1" cx="25" cy="25" r="25" transform="translate(22.5 22.5)"/>
    </g>
    <g id="组_359" data-name="组 359" transform="translate(13.94 11.161)">
      <g id="组_358" data-name="组 358">
        <path id="路径_168" data-name="路径 168" class="cls-2" d="M75.529,46.981c.54.489.952.9,1.26,1.235a8.123,8.123,0,0,1,.72.823,2.557,2.557,0,0,1,.309.566,1.2,1.2,0,0,1,.051.412v.463H73.523a.686.686,0,0,1-.514-.232,1.435,1.435,0,0,1-.36-.514,2.816,2.816,0,0,1-.232-.592,2.078,2.078,0,0,1-.077-.489V45h.077a1.748,1.748,0,0,1,.489.077,2.882,2.882,0,0,1,.566.283,7.722,7.722,0,0,1,.8.592,15.035,15.035,0,0,1,1.26,1.029ZM70.488,48.7a4.345,4.345,0,0,0,.18,1.235,4.175,4.175,0,0,0,.566,1.183,3.273,3.273,0,0,0,.977.9,2.655,2.655,0,0,0,1.389.36h4.3V69a3.4,3.4,0,0,1-.334,1.543,3.608,3.608,0,0,1-.9,1.158,5.1,5.1,0,0,1-1.235.746,3.625,3.625,0,0,1-1.338.257H59.607a2.7,2.7,0,0,1-1.235-.334,5.054,5.054,0,0,1-2.186-2.058A2.858,2.858,0,0,1,55.8,68.9V48.807a3.421,3.421,0,0,1,.283-1.286,4.5,4.5,0,0,1,.772-1.235,4.161,4.161,0,0,1,1.106-.926A2.381,2.381,0,0,1,59.247,45H70.488ZM72.365,67.07a1.69,1.69,0,0,0,1.286-.54,1.786,1.786,0,0,0,.54-1.312,1.69,1.69,0,0,0-.54-1.286,1.77,1.77,0,0,0-1.286-.54H61.3a1.69,1.69,0,0,0-1.286.54,1.77,1.77,0,0,0-.54,1.286,1.828,1.828,0,0,0,.54,1.312,1.77,1.77,0,0,0,1.286.54Zm1.826-9.183a1.844,1.844,0,0,0-1.826-1.852H61.3a1.69,1.69,0,0,0-1.286.54,1.786,1.786,0,0,0-.54,1.312,1.69,1.69,0,0,0,.54,1.286,1.77,1.77,0,0,0,1.286.54H72.34a1.69,1.69,0,0,0,1.286-.54,1.662,1.662,0,0,0,.566-1.286Zm0,0" transform="translate(-55.8 -45)"/>
      </g>
    </g>
  </g>
</svg>
