<svg version="1.1" id="图层_1" xmlns="http://www.w3.org/2000/svg" x="0" y="0" viewBox="0 0 375 305.3" xml:space="preserve"><style>.st5{fill:#ffdf72}.st7{fill:#fff35c}.st13,.st14,.st16,.st17{opacity:.302;fill:#ff6d65;enable-background:new}.st14,.st16,.st17{opacity:.702}.st16,.st17{opacity:.302;fill:#ff857e}.st17{opacity:.702}</style><g id="yaoqing_bg" transform="translate(12 .152)"><g id="组_1" transform="translate(.007 -.152)"><linearGradient id="路径_1_1_" gradientUnits="userSpaceOnUse" x1="-197.856" y1="818.503" x2="-198.356" y2="819.369" gradientTransform="matrix(375 0 0 -295.288 74440.625 241918.438)"><stop offset="0" stop-color="#fb8f69"/><stop offset="1" stop-color="#f74c58"/></linearGradient><path id="路径_1" d="M175 295.3c-74.4 0-141.2-13.4-187-34.7V0h375v260.2c-45.8 21.5-113.1 35.1-188 35.1z" fill="url(#路径_1_1_)"/><linearGradient id="路径_2_1_" gradientUnits="userSpaceOnUse" x1="-198.04" y1="816.519" x2="-198.04" y2="817.519" gradientTransform="matrix(374.993 0 0 -147.391 74439.234 120585.242)"><stop offset="0" stop-color="#cd0702"/><stop offset="1" stop-color="#cd0702" stop-opacity="0"/></linearGradient><path id="路径_2" d="M-12 237.6s24-46.6 78.6-62.3c32.2-9.2 47.8-8.9 78.4-6.6 32.2 2.4 40.2 4.2 81.4-14.9s73.2-40 99.9-35.2 36.7 14.2 36.7 14.2V90.2H-11.8l-.2 147.4z" opacity=".502" fill="url(#路径_2_1_)"/><linearGradient id="路径_3_1_" gradientUnits="userSpaceOnUse" x1="-198.04" y1="814.408" x2="-198.04" y2="815.408" gradientTransform="matrix(375 0 0 -91.7365 74440.625 74811.703)"><stop offset="0" stop-color="#d80700"/><stop offset=".67" stop-color="#ec5d59" stop-opacity=".329"/><stop offset="1" stop-color="#ffb2b2" stop-opacity="0"/></linearGradient><path id="路径_3" d="M363 18.1C255.8 34.7 221.4 71.2 132.9 95.4c-43.8 12-88.9 1.4-122.5-6.7-6.5-1.6-14.1-4.8-22.4-9V9l375 3.8v5.3z" opacity=".2" fill="url(#路径_3_1_)"/><linearGradient id="路径_4_1_" gradientUnits="userSpaceOnUse" x1="-198.04" y1="816.359" x2="-198.04" y2="817.359" gradientTransform="matrix(374.999 0 0 -140.892 74440.414 115323.79)"><stop offset="0" stop-color="#e80f00" stop-opacity="0"/><stop offset="1" stop-color="#ef0017"/></linearGradient><path id="路径_4" d="M363 205.5s-25.9-42.8-67.7-41-68.2 18.5-117 30.2c-74.2 17.9-118.2-6.9-146.1.5s-39.6 34.6-43.6 40.1l-.6 25.2c14.2 22.5 184 52.2 235.7 43.3-.1-9.2 104.6-14.7 139.3-43.5v-54.8z" opacity=".2" fill="url(#路径_4_1_)"/></g><g id="组_7" transform="translate(-5 161.569)"><g transform="translate(-7 -161.72)"><linearGradient id="路径_22-2_1_" gradientUnits="userSpaceOnUse" x1="-177.992" y1="810" x2="-178.769" y2="810.629" gradientTransform="matrix(21.0511 0 0 -49.9585 3761.562 40664.605)"><stop offset="0" stop-color="#fb8e33"/><stop offset=".5" stop-color="#fdb43c"/><stop offset=".79" stop-color="#fed945"/><stop offset=".99" stop-color="#fcbe27"/></linearGradient><path id="路径_22-2" d="M12.6 192.6C9 199.7 4.7 208 0 211.7v-46.8c4.8-3.1 9.6-4.1 13.1-2.2 2.3 1.2 6.8 3 7.7 5.9 1.6 5.9-3.9 15.6-8.2 24z" fill="url(#路径_22-2_1_)"/></g><path id="路径_23" class="st5" d="M12.9 34.3C7.7 44.5-.4 51.2-7 51.6V12.9C-.8 5.5 6.8 2 12 4.8c6.9 3.7 7.3 16.8.9 29.5z"/><linearGradient id="路径_24_1_" gradientUnits="userSpaceOnUse" x1="-185.583" y1="644.086" x2="-185.583" y2="645.086" gradientTransform="matrix(22.1032 0 0 -36.1434 4106.019 23326.346)"><stop offset="0" stop-color="#fbb41d"/><stop offset="1" stop-color="#ffd040"/></linearGradient><path id="路径_24" d="M10.8 33.4C5.8 42.2-1.8 47.8-7 46.8V22.9c.1-.1.2-.3.3-.4C-.9 13.4 7.4 8.8 11.9 11.7s4.2 12.3-1.1 21.7z" fill="url(#路径_24_1_)"/><path id="路径_25" class="st7" d="M9.5 16.7l-4.3 1.7-3.4 11-4.3-5.5-4.3 2.5 5.5 5.9-3.7 2.2.4 1.7 4.3-2.1v1.7L-5 38.3l.4 1.7 4.3-2.1v3l3.4-1.7v-3.4l4.7-3.4v-2.1l-4.7 3.4V32l4.3-3v-2.1l-3.8 2.5 5.9-12.7z"/></g><g id="组_4" transform="translate(334 49)" fill="#fca178"><path id="路径_9" d="M28.6 7.6c-1.9 1.4-4.5 1-5.9-.8s-1-4.5.8-5.9C24.2.3 25.1 0 26 0c.9 0 1.8.3 2.5.9l.1 6.7zM26 16.9c.9 0 1.8.3 2.5.9v6.7c-1.9 1.4-4.5 1-5.9-.8s-1-4.5.8-5.9c.8-.6 1.7-.9 2.6-.9zm0 16.9c.9 0 1.8.3 2.5.9v6.7c-1.9 1.4-4.5 1-5.9-.8-1.4-1.9-1-4.5.8-5.9.8-.6 1.7-.9 2.6-.9zm0 16.9c.9 0 1.8.3 2.5.9v6.7c-1.9 1.4-4.5 1-5.9-.8-1.4-1.9-1-4.5.8-5.9.8-.6 1.7-.9 2.6-.9zm0 16.9c.9 0 1.8.3 2.5.9v6.7c-1.9 1.4-4.5 1-5.9-.8s-1-4.5.8-5.9c.8-.6 1.7-.9 2.6-.9zm0 16.9c.9 0 1.8.3 2.5.9v6.7c-1.9 1.4-4.5 1-5.9-.8s-1-4.5.8-5.9c.8-.6 1.7-.9 2.6-.9zm0 16.9c.9 0 1.8.3 2.5.9v6.7c-1.9 1.4-4.5 1-5.9-.8s-1-4.5.8-5.9c.8-.6 1.7-.9 2.6-.9zm0 16.9c.9 0 1.8.3 2.5.9v6.7c-1.9 1.4-4.5 1-5.9-.8s-1-4.5.8-5.9c.8-.6 1.7-.9 2.6-.9z" opacity=".902"/><path id="路径_10" d="M9.1 109.8c-2.3 0-4.2-1.9-4.2-4.2 0-2.3 1.9-4.2 4.2-4.2s4.2 1.9 4.2 4.2c0 2.4-1.8 4.2-4.2 4.2zm0-16.9c-2.3 0-4.2-1.9-4.2-4.2 0-2.3 1.9-4.2 4.2-4.2s4.2 1.9 4.2 4.2c0 2.4-1.8 4.2-4.2 4.2zm0-16.9c-2.3 0-4.2-1.9-4.2-4.2 0-2.3 1.9-4.2 4.2-4.2s4.2 1.9 4.2 4.2c0 2.4-1.8 4.2-4.2 4.2zm0-16.9c-2.3 0-4.2-1.9-4.2-4.2 0-2.3 1.9-4.2 4.2-4.2s4.2 1.9 4.2 4.2c0 2.4-1.8 4.2-4.2 4.2zm0-16.9c-2.3 0-4.2-1.9-4.2-4.2 0-2.3 1.9-4.2 4.2-4.2s4.2 1.9 4.2 4.2c.1 2.4-1.8 4.2-4.2 4.2zm0-16.9c-2.3 0-4.2-1.9-4.2-4.2 0-2.3 1.9-4.2 4.2-4.2 2.3 0 4.2 1.9 4.2 4.2.1 2.4-1.8 4.2-4.2 4.2zm0-16.9c-2.3 0-4.2-1.9-4.2-4.2C4.9 1.9 6.8 0 9.1 0c2.3 0 4.2 1.9 4.2 4.2.1 2.4-1.8 4.2-4.2 4.2zm0 109.9c2.3 0 4.2 1.9 4.2 4.2 0 2.3-1.9 4.2-4.2 4.2-2.3 0-4.2-1.9-4.2-4.2 0-2.3 1.9-4.2 4.2-4.2z" opacity=".702"/><path id="路径_11" d="M-7.8 109.8c-2.3 0-4.2-1.9-4.2-4.2s1.9-4.2 4.2-4.2 4.2 1.9 4.2 4.2c0 2.4-1.8 4.2-4.2 4.2zm0-16.9c-2.3 0-4.2-1.9-4.2-4.2s1.9-4.2 4.2-4.2 4.2 1.9 4.2 4.2c0 2.4-1.8 4.2-4.2 4.2zm0-16.9c-2.3 0-4.2-1.9-4.2-4.2 0-2.3 1.9-4.2 4.2-4.2 2.3 0 4.2 1.9 4.2 4.2 0 2.4-1.8 4.2-4.2 4.2zm0-16.9c-2.3 0-4.2-1.9-4.2-4.2 0-2.3 1.9-4.2 4.2-4.2s4.2 1.9 4.2 4.2c.1 2.4-1.8 4.2-4.2 4.2zm0-16.9c-2.3 0-4.2-1.9-4.2-4.2 0-2.3 1.9-4.2 4.2-4.2s4.2 1.9 4.2 4.2c.1 2.4-1.8 4.2-4.2 4.2zm0-16.9c-2.3 0-4.2-1.9-4.2-4.2s1.9-4.2 4.2-4.2 4.2 1.9 4.2 4.2c.1 2.4-1.8 4.2-4.2 4.2zm0-16.9c-2.3 0-4.2-1.9-4.2-4.2C-12 1.9-10.1 0-7.8 0s4.2 1.9 4.2 4.2c0 2.4-1.8 4.2-4.2 4.2zm0 109.9c2.3 0 4.2 1.9 4.2 4.2s-1.9 4.2-4.2 4.2c-2.3 0-4.2-1.9-4.2-4.2 0-2.3 1.9-4.2 4.2-4.2z" opacity=".302"/></g><g id="组_3" transform="translate(280.552 89.457)"><g transform="translate(-292.55 -89.61)"><linearGradient id="路径_5-2_1_" gradientUnits="userSpaceOnUse" x1="-182.727" y1="812.672" x2="-183.504" y2="813.301" gradientTransform="matrix(49.6155 0 0 -66.9391 9388.49 54534.418)"><stop offset="0" stop-color="#fb8e33"/><stop offset=".5" stop-color="#fdb43c"/><stop offset=".79" stop-color="#fed945"/><stop offset=".99" stop-color="#fcbe27"/></linearGradient><path id="路径_5-2" d="M295.6 91.6c8.9-4.8 24.5 4.9 33 21.2 8.7 16.5 8.2 32.8-.6 39-3.2 2.5-5.9 4.6-12 5.5-7.5-2.6-14.2-15.8-19.8-26.8-5.5-10.9-12.7-23.4-10.5-31.1 1.1-3.9 6.9-6.2 9.9-7.8z" fill="url(#路径_5-2_1_)"/></g><path id="路径_6" class="st5" d="M-4.7 7c8.9-4.8 22.9 4.3 31.4 20.6 8.7 16.5 8.4 34-.6 39S2.7 61.9-5.7 45.3C-14 28.9-13.5 11.8-4.7 7z"/><linearGradient id="路径_7_1_" gradientUnits="userSpaceOnUse" x1="-474.103" y1="719.474" x2="-474.103" y2="720.474" gradientTransform="matrix(35.3617 0 0 -46.9912 16774.152 33870.68)"><stop offset="0" stop-color="#fbb41d"/><stop offset="1" stop-color="#ffd040"/></linearGradient><path id="路径_7" d="M-4.5 15.8c6-3.7 16.6 2.3 24.2 14.1 8 12.5 9.5 26.5 2.9 30.7S4.3 57.1-3.1 44.1C-10 32-10.5 19.6-4.5 15.8z" fill="url(#路径_7_1_)"/><g id="组_2" transform="translate(10.647 22.429)"><path id="路径_8" class="st7" d="M-12 0l5.5 2.2 4.4 14.4 5.5-7.2L9 12.7l-7.2 7.7 5 2.8-.5 2.2-5.5-2.8v2.2l6.1 3.3-.6 2.2-5.5-2.8v3.9l-4.4-2.2v-4.4l-6.1-4.4v-2.8l6.1 4.4v-2.2L-9.2 16v-2.8l5 3.3L-12 0z"/></g></g><g id="组_5" transform="translate(0 62.107)"><path id="路径_12" class="st13" d="M87.5 6.9c-1.9 0-3.4-1.5-3.4-3.4S85.6 0 87.5 0 91 1.5 91 3.4s-1.6 3.5-3.5 3.5zm-13.7 0c-1.9 0-3.4-1.5-3.4-3.4S71.9 0 73.8 0s3.4 1.5 3.4 3.4-1.5 3.5-3.4 3.5zm-13.7 0c-1.9 0-3.4-1.5-3.4-3.4S58.2 0 60.1 0s3.4 1.5 3.4 3.4-1.5 3.5-3.4 3.5zm-13.7 0c-1.9 0-3.4-1.5-3.4-3.4S44.5 0 46.4 0s3.4 1.5 3.4 3.4-1.6 3.5-3.4 3.5zm-13.8 0c-1.9 0-3.4-1.5-3.4-3.4S30.7 0 32.6 0 36 1.5 36 3.4c.1 1.9-1.5 3.5-3.4 3.5zm-13.7 0c-1.9 0-3.4-1.5-3.4-3.4 0-2 1.5-3.5 3.4-3.5s3.4 1.5 3.4 3.4-1.5 3.5-3.4 3.5zm-13.7 0c-1.9 0-3.4-1.5-3.4-3.4C1.7 1.5 3.3 0 5.2 0s3.4 1.5 3.4 3.4-1.5 3.5-3.4 3.5zm-13.8 0c-1.9 0-3.4-1.5-3.4-3.4 0-2 1.5-3.5 3.4-3.5s3.4 1.5 3.4 3.4c.1 1.9-1.5 3.5-3.4 3.5z"/><path id="路径_13" class="st14" d="M87.5 20.6c-1.9 0-3.4-1.5-3.4-3.4s1.5-3.4 3.4-3.4 3.4 1.5 3.4 3.4c.1 1.9-1.5 3.4-3.4 3.4zm-13.7 0c-1.9 0-3.4-1.5-3.4-3.4s1.5-3.4 3.4-3.4 3.4 1.5 3.4 3.4-1.5 3.4-3.4 3.4zm-13.7 0c-1.9 0-3.4-1.5-3.4-3.4s1.5-3.4 3.4-3.4 3.4 1.5 3.4 3.4-1.5 3.4-3.4 3.4zm-13.7 0c-1.9 0-3.4-1.5-3.4-3.4s1.5-3.4 3.4-3.4 3.4 1.5 3.4 3.4-1.6 3.4-3.4 3.4zm-13.8 0c-1.9 0-3.4-1.5-3.4-3.4s1.5-3.4 3.4-3.4 3.4 1.5 3.4 3.4c.1 1.9-1.5 3.4-3.4 3.4zm-13.7 0c-1.9 0-3.4-1.5-3.4-3.4s1.5-3.4 3.4-3.4 3.4 1.5 3.4 3.4-1.5 3.4-3.4 3.4zm-13.7 0c-1.9 0-3.4-1.5-3.4-3.4s1.5-3.4 3.4-3.4 3.4 1.5 3.4 3.4-1.5 3.4-3.4 3.4zm-13.8 0c-1.9 0-3.4-1.5-3.4-3.4s1.5-3.4 3.4-3.4 3.4 1.5 3.4 3.4c.1 1.9-1.5 3.4-3.4 3.4z"/><path id="路径_14" d="M87.5 34.3c-1.9 0-3.4-1.5-3.4-3.4s1.5-3.4 3.4-3.4 3.4 1.5 3.4 3.4c.1 1.9-1.5 3.4-3.4 3.4zm-13.7 0c-1.9 0-3.4-1.5-3.4-3.4s1.5-3.4 3.4-3.4 3.4 1.5 3.4 3.4-1.5 3.4-3.4 3.4zm-13.7 0c-1.9 0-3.4-1.5-3.4-3.4s1.5-3.4 3.4-3.4 3.4 1.5 3.4 3.4-1.5 3.4-3.4 3.4zm-13.7 0c-1.9 0-3.4-1.5-3.4-3.4s1.5-3.4 3.4-3.4 3.4 1.5 3.4 3.4-1.6 3.4-3.4 3.4zm-13.8 0c-1.9 0-3.4-1.5-3.4-3.4s1.5-3.4 3.4-3.4S36 29 36 30.9c.1 1.9-1.5 3.4-3.4 3.4zm-13.7 0c-1.9 0-3.4-1.5-3.4-3.4s1.5-3.4 3.4-3.4 3.4 1.5 3.4 3.4-1.5 3.4-3.4 3.4zm-13.7 0c-1.9 0-3.4-1.5-3.4-3.4s1.5-3.4 3.4-3.4 3.4 1.5 3.4 3.4-1.5 3.4-3.4 3.4zm-13.8 0c-1.9 0-3.4-1.5-3.4-3.4s1.5-3.4 3.4-3.4 3.4 1.5 3.4 3.4c.1 1.9-1.5 3.4-3.4 3.4z" opacity=".902" fill="#ff6d65"/><path id="路径_15" class="st14" d="M87.5 48.1c-1.9 0-3.4-1.5-3.4-3.4s1.5-3.4 3.4-3.4 3.4 1.5 3.4 3.4c.1 1.8-1.5 3.4-3.4 3.4zm-13.7 0c-1.9 0-3.4-1.5-3.4-3.4s1.5-3.4 3.4-3.4 3.4 1.5 3.4 3.4c0 1.8-1.5 3.4-3.4 3.4zm-13.7 0c-1.9 0-3.4-1.5-3.4-3.4s1.5-3.4 3.4-3.4 3.4 1.5 3.4 3.4c0 1.8-1.5 3.4-3.4 3.4zm-13.7 0c-1.9 0-3.4-1.5-3.4-3.4s1.5-3.4 3.4-3.4 3.4 1.5 3.4 3.4c0 1.8-1.6 3.4-3.4 3.4zm-13.8 0c-1.9 0-3.4-1.5-3.4-3.4s1.5-3.4 3.4-3.4 3.4 1.5 3.4 3.4c.1 1.8-1.5 3.4-3.4 3.4zm-13.7 0c-1.9 0-3.4-1.5-3.4-3.4s1.5-3.4 3.4-3.4 3.4 1.5 3.4 3.4c0 1.8-1.5 3.4-3.4 3.4zm-13.7 0c-1.9 0-3.4-1.5-3.4-3.4s1.5-3.4 3.4-3.4 3.4 1.5 3.4 3.4c0 1.8-1.5 3.4-3.4 3.4zm-13.8 0c-1.9 0-3.4-1.5-3.4-3.4s1.5-3.4 3.4-3.4 3.4 1.5 3.4 3.4c.1 1.8-1.5 3.4-3.4 3.4z"/><path id="路径_16" class="st13" d="M87.5 61.8c-1.9 0-3.4-1.5-3.4-3.4s1.5-3.4 3.4-3.4 3.4 1.5 3.4 3.4c.1 1.8-1.5 3.4-3.4 3.4zm-13.7 0c-1.9 0-3.4-1.5-3.4-3.4s1.5-3.4 3.4-3.4 3.4 1.5 3.4 3.4c0 1.8-1.5 3.4-3.4 3.4zm-13.7 0c-1.9 0-3.4-1.5-3.4-3.4s1.5-3.4 3.4-3.4 3.4 1.5 3.4 3.4c0 1.8-1.5 3.4-3.4 3.4zm-13.7 0c-1.9 0-3.4-1.5-3.4-3.4s1.5-3.4 3.4-3.4 3.4 1.5 3.4 3.4c0 1.8-1.6 3.4-3.4 3.4zm-13.8 0c-1.9 0-3.4-1.5-3.4-3.4s1.5-3.4 3.4-3.4 3.4 1.5 3.4 3.4c.1 1.8-1.5 3.4-3.4 3.4zm-13.7 0c-1.9 0-3.4-1.5-3.4-3.4S17 55 18.9 55s3.4 1.5 3.4 3.4c0 1.8-1.5 3.4-3.4 3.4zm-13.7 0c-1.9 0-3.4-1.5-3.4-3.4S3.3 55 5.2 55s3.4 1.5 3.4 3.4c0 1.8-1.5 3.4-3.4 3.4zm-13.8 0c-1.9 0-3.4-1.5-3.4-3.4s1.5-3.4 3.4-3.4 3.4 1.5 3.4 3.4c.1 1.8-1.5 3.4-3.4 3.4z"/></g><g id="组_6" transform="translate(54.009 191.681)"><path id="路径_17" class="st16" d="M37.1 75.1c-1.6 0-2.9-1.3-2.9-2.9s1.3-2.9 2.9-2.9c1.6 0 2.9 1.3 2.9 2.9 0 1.6-1.3 2.9-2.9 2.9zm0-11.6c-1.6 0-2.9-1.3-2.9-2.9s1.3-2.9 2.9-2.9c1.6 0 2.9 1.3 2.9 2.9s-1.3 2.9-2.9 2.9zm0-11.5c-1.6 0-2.9-1.3-2.9-2.9s1.3-2.9 2.9-2.9c1.6 0 2.9 1.3 2.9 2.9 0 1.6-1.3 2.9-2.9 2.9zm0-11.6c-1.6 0-2.9-1.3-2.9-2.9s1.3-2.9 2.9-2.9c1.6 0 2.9 1.3 2.9 2.9 0 1.6-1.3 2.9-2.9 2.9zm0-11.5c-1.6 0-2.9-1.3-2.9-2.9s1.3-2.9 2.9-2.9c1.6 0 2.9 1.3 2.9 2.9 0 1.6-1.3 2.9-2.9 2.9zm0-11.6c-1.6 0-2.9-1.3-2.9-2.9s1.3-2.9 2.9-2.9c1.6 0 2.9 1.3 2.9 2.9 0 1.6-1.3 2.9-2.9 2.9zm0-11.5c-1.6 0-2.9-1.3-2.9-2.9S35.5 0 37.1 0C38.7 0 40 1.3 40 2.9c0 1.6-1.3 2.9-2.9 2.9zm0 75.1c1.6 0 2.9 1.3 2.9 2.9s-1.3 2.9-2.9 2.9c-1.6 0-2.9-1.3-2.9-2.9 0-1.6 1.3-2.9 2.9-2.9z"/><path id="路径_18" class="st17" d="M25.5 75.1c-1.6 0-2.9-1.3-2.9-2.9 0-1.6 1.3-2.9 2.9-2.9 1.6 0 2.9 1.3 2.9 2.9 0 1.6-1.3 2.9-2.9 2.9zm0-11.6c-1.6 0-2.9-1.3-2.9-2.9s1.3-2.9 2.9-2.9c1.6 0 2.9 1.3 2.9 2.9s-1.3 2.9-2.9 2.9zm0-11.5c-1.6 0-2.9-1.3-2.9-2.9s1.3-2.9 2.9-2.9c1.6 0 2.9 1.3 2.9 2.9 0 1.6-1.3 2.9-2.9 2.9zm0-11.6c-1.6 0-2.9-1.3-2.9-2.9s1.3-2.9 2.9-2.9c1.6 0 2.9 1.3 2.9 2.9 0 1.6-1.3 2.9-2.9 2.9zm0-11.5c-1.6 0-2.9-1.3-2.9-2.9s1.3-2.9 2.9-2.9c1.6 0 2.9 1.3 2.9 2.9 0 1.6-1.3 2.9-2.9 2.9zm0-11.6c-1.6 0-2.9-1.3-2.9-2.9s1.3-2.9 2.9-2.9c1.6 0 2.9 1.3 2.9 2.9 0 1.6-1.3 2.9-2.9 2.9zm0-11.5c-1.6 0-2.9-1.3-2.9-2.9S23.9 0 25.5 0c1.6 0 2.9 1.3 2.9 2.9 0 1.6-1.3 2.9-2.9 2.9zm0 75.1c1.6 0 2.9 1.3 2.9 2.9s-1.3 2.9-2.9 2.9c-1.6 0-2.9-1.3-2.9-2.9.1-1.6 1.3-2.9 2.9-2.9z"/><path id="路径_19" d="M14 75.1c-1.6 0-2.9-1.3-2.9-2.9 0-1.6 1.3-2.9 2.9-2.9 1.6 0 2.9 1.3 2.9 2.9 0 1.6-1.3 2.9-2.9 2.9zm0-11.6c-1.6 0-2.9-1.3-2.9-2.9s1.3-2.9 2.9-2.9 2.9 1.3 2.9 2.9c0 1.6-1.3 2.9-2.9 2.9zM14 52c-1.6 0-2.9-1.3-2.9-2.9s1.3-2.9 2.9-2.9 2.9 1.3 2.9 2.9c0 1.6-1.3 2.9-2.9 2.9zm0-11.6c-1.6 0-2.9-1.3-2.9-2.9s1.3-2.9 2.9-2.9 2.9 1.3 2.9 2.9c0 1.6-1.3 2.9-2.9 2.9zm0-11.5c-1.6 0-2.9-1.3-2.9-2.9s1.3-2.9 2.9-2.9c1.6 0 2.9 1.3 2.9 2.9 0 1.6-1.3 2.9-2.9 2.9zm0-11.6c-1.6 0-2.9-1.3-2.9-2.9s1.3-2.9 2.9-2.9 2.9 1.3 2.9 2.9c0 1.6-1.3 2.9-2.9 2.9zm0-11.5c-1.6 0-2.9-1.3-2.9-2.9S12.4 0 14 0s2.9 1.3 2.9 2.9c0 1.6-1.3 2.9-2.9 2.9zm0 75.1c1.6 0 2.9 1.3 2.9 2.9 0 1.6-1.3 2.9-2.9 2.9-1.6 0-2.9-1.3-2.9-2.9 0-1.6 1.3-2.9 2.9-2.9z" opacity=".902" fill="#ff857e"/><path id="路径_20" class="st17" d="M2.4 75.1c-1.6 0-2.9-1.3-2.9-2.9 0-1.6 1.3-2.9 2.9-2.9 1.6 0 2.9 1.3 2.9 2.9 0 1.6-1.3 2.9-2.9 2.9zm0-11.6c-1.6 0-2.9-1.3-2.9-2.9 0-1.6 1.3-2.9 2.9-2.9 1.6 0 2.9 1.3 2.9 2.9 0 1.6-1.3 2.9-2.9 2.9zm0-11.5C.8 52-.5 50.7-.5 49.1c0-1.6 1.3-2.9 2.9-2.9 1.6 0 2.9 1.3 2.9 2.9C5.3 50.7 4 52 2.4 52zm0-11.6c-1.6 0-2.9-1.3-2.9-2.9 0-1.6 1.3-2.9 2.9-2.9 1.6 0 2.9 1.3 2.9 2.9 0 1.6-1.3 2.9-2.9 2.9zm0-11.5C.8 28.9-.5 27.6-.5 26c0-1.6 1.3-2.9 2.9-2.9 1.6 0 2.9 1.3 2.9 2.9 0 1.6-1.3 2.9-2.9 2.9zm0-11.6C.8 17.3-.5 16-.5 14.4c0-1.6 1.3-2.9 2.9-2.9 1.6 0 2.9 1.3 2.9 2.9 0 1.6-1.3 2.9-2.9 2.9zm0-11.5C.8 5.8-.5 4.5-.5 2.9-.4 1.3.8 0 2.4 0 4 0 5.3 1.3 5.3 2.9c0 1.6-1.3 2.9-2.9 2.9zm0 75.1c1.6 0 2.9 1.3 2.9 2.9S4 86.6 2.4 86.6c-1.6 0-2.9-1.3-2.9-2.9.1-1.5 1.3-2.8 2.9-2.8z"/><path id="路径_21" class="st16" d="M-9.1 75.1c-1.6 0-2.9-1.3-2.9-2.9s1.3-2.9 2.9-2.9 2.9 1.3 2.9 2.9c0 1.6-1.3 2.9-2.9 2.9zm0-11.6c-1.6 0-2.9-1.3-2.9-2.9s1.3-2.9 2.9-2.9 2.9 1.3 2.9 2.9c0 1.6-1.3 2.9-2.9 2.9zm0-11.5c-1.6 0-2.9-1.3-2.9-2.9s1.3-2.9 2.9-2.9 2.9 1.3 2.9 2.9c0 1.6-1.3 2.9-2.9 2.9zm0-11.6c-1.6 0-2.9-1.3-2.9-2.9s1.3-2.9 2.9-2.9 2.9 1.3 2.9 2.9c0 1.6-1.3 2.9-2.9 2.9zm0-11.5c-1.6 0-2.9-1.3-2.9-2.9 0-1.6 1.3-2.9 2.9-2.9s2.9 1.3 2.9 2.9c0 1.6-1.3 2.9-2.9 2.9zm0-11.6c-1.6 0-2.9-1.3-2.9-2.9s1.3-2.9 2.9-2.9 2.9 1.3 2.9 2.9c0 1.6-1.3 2.9-2.9 2.9zm0-11.5c-1.6 0-2.9-1.3-2.9-2.9S-10.7 0-9.1 0s2.9 1.3 2.9 2.9c0 1.6-1.3 2.9-2.9 2.9zm0 75.1c1.6 0 2.9 1.3 2.9 2.9s-1.3 2.9-2.9 2.9c-1.6 0-2.9-1.3-2.9-2.9 0-1.6 1.3-2.9 2.9-2.9z"/></g></g></svg>