<?xml version="1.0" encoding="utf-8"?>
<!-- Generator: Adobe Illustrator 21.0.0, SVG Export Plug-In . SVG Version: 6.00 Build 0)  -->
<svg version="1.1" id="图层_1" xmlns="http://www.w3.org/2000/svg" xmlns:xlink="http://www.w3.org/1999/xlink" x="0px" y="0px"
	 viewBox="0 0 48 48" style="enable-background:new 0 0 48 48;" xml:space="preserve">
<style type="text/css">
	.st0{fill:#C7CAD9;}
</style>
<path class="st0" d="M45.3,22.1L45.3,22.1L26.5,3.3c-1.4-1.4-3.7-1.4-5,0L2.7,22.1l0,0c-0.7,0.7-0.8,1.7-0.5,2.6
	c0.4,0.9,1.3,1.5,2.2,1.5h2v16c0,2,1.6,3.6,3.6,3.6h7.6c1.2,0,2.1-0.9,2.1-2.1V32c0-0.8,0.7-1.6,1.6-1.6h5.6c0.8,0,1.6,0.7,1.6,1.6
	v11.6c0,1.2,0.9,2.1,2.1,2.1H38c2,0,3.6-1.6,3.6-3.6v-4.8c0-0.5-0.4-1-1-1s-1,0.4-1,1v4.8c0,0.8-0.7,1.6-1.6,1.6h-7.6
	c0,0-0.1,0-0.1-0.1V32c0-2-1.6-3.6-3.6-3.6H21c-2,0-3.6,1.6-3.6,3.6v11.6c0,0,0,0.1-0.1,0.1H9.7c-0.8,0-1.6-0.7-1.6-1.6V25.5
	c0-0.7-0.6-1.4-1.4-1.4H4.3C4.1,24.1,4,24,4,23.9s-0.1-0.2,0.1-0.4L22.9,4.7c0.6-0.6,1.6-0.6,2.2,0l18.8,18.8l0,0
	c0.1,0.1,0.1,0.3,0.1,0.4s-0.1,0.2-0.3,0.2H41c-0.7,0-1.4,0.6-1.4,1.4v4.3c0,0.5,0.4,1,1,1s1-0.4,1-1v-3.7h2c0.9,0,1.9-0.6,2.2-1.5
	C46.2,23.8,46,22.8,45.3,22.1z"/>
</svg>
