<?xml version="1.0" encoding="utf-8"?>
<!-- Generator: Adobe Illustrator 21.0.0, SVG Export Plug-In . SVG Version: 6.00 Build 0)  -->
<svg version="1.1" id="图层_1" xmlns="http://www.w3.org/2000/svg" xmlns:xlink="http://www.w3.org/1999/xlink" x="0px" y="0px"
	 viewBox="0 0 48 48" style="enable-background:new 0 0 48 48;" xml:space="preserve">
<style type="text/css">
	.st0{fill:#C7CAD9;}
</style>
<path class="st0" d="M43.9,15.5c-1.1-2.6-2.7-4.8-4.6-6.9c-2-2-4.3-3.5-6.9-4.6c-2.7-1-5.5-1.6-8.4-1.6S18.1,2.9,15.5,4
	C13,5.1,10.6,6.7,8.7,8.7c-2,2-3.5,4.3-4.6,6.9C3,18.3,2.5,21.1,2.5,24S3,29.8,4,32.5c1.1,2.6,2.7,4.8,4.6,6.9c2,2,4.3,3.5,6.9,4.6
	c2.7,1.1,5.5,1.6,8.4,1.6c3.5,0,7.1-0.8,10.2-2.6c0.5-0.3,0.7-0.9,0.4-1.4s-0.9-0.7-1.4-0.4c-2.9,1.4-6,2.3-9.2,2.3
	c-10.8,0-19.6-8.7-19.6-19.6S13.2,4.4,24,4.4S43.6,13.1,43.6,24c0,4.7-1.6,9.3-4.7,12.8L31,29.1l3-3c0.6-0.6,0.9-1.3,0.9-2.3
	c0-0.8-0.3-1.6-0.9-2.3l-7.7-7.7c-0.6-0.6-1.3-0.9-2.3-0.9c-0.8,0-1.6,0.3-2.3,0.9L14,21.6c-0.6,0.6-0.9,1.3-0.9,2.3
	c0,0.8,0.3,1.6,0.9,2.3l7.7,7.7c0.6,0.6,1.3,0.9,2.3,0.9c0.8,0,1.6-0.3,2.3-0.9l3.3-3.3l8.6,8.3c0.1,0.1,0.2,0.1,0.3,0.2
	c0.4,0.2,0.9,0.1,1.2-0.2c3.8-4,6-9.3,6-14.9C45.5,21.1,45,18.2,43.9,15.5z M24.7,32.4c-0.2,0.2-0.4,0.3-0.7,0.3s-0.5-0.1-0.7-0.3
	l-7.7-7.7c-0.2-0.2-0.3-0.4-0.3-0.7s0.1-0.5,0.3-0.7l7.7-7.7c0.2-0.2,0.4-0.3,0.7-0.3c0.3,0,0.5,0.1,0.7,0.3l7.7,7.7
	c0.2,0.2,0.3,0.4,0.3,0.7c0,0.3-0.1,0.5-0.3,0.7L24.7,32.4z"/>
</svg>
