<?xml version="1.0" encoding="utf-8"?>
<!-- Generator: Adobe Illustrator 21.0.0, SVG Export Plug-In . SVG Version: 6.00 Build 0)  -->
<svg version="1.1" id="图层_1" xmlns="http://www.w3.org/2000/svg" xmlns:xlink="http://www.w3.org/1999/xlink" x="0px" y="0px"
	 viewBox="0 0 48 48" style="enable-background:new 0 0 48 48;" xml:space="preserve">
<style type="text/css">
	.st0{fill:#C7CAD9;}
</style>
<g>
	<path class="st0" d="M43.3,12.5c0.5,0,1.1-0.4,1.1-1.1V6.7c0-1.7-1.4-3.1-3.1-3.1H6.7C5,3.6,3.6,5,3.6,6.7v34.6
		c0,1.7,1.4,3.1,3.1,3.1h34.6c1.7,0,3.1-1.4,3.1-3.1V20.5c0-0.5-0.4-1.1-1.1-1.1c-0.5,0-1.1,0.4-1.1,1.1v20.8c0,0.5-0.4,1.1-1.1,1.1
		H6.7c-0.5,0-1.1-0.4-1.1-1.1V6.7c0-0.5,0.4-1.1,1.1-1.1h34.6c0.5,0,1.1,0.4,1.1,1.1v4.7C42.2,11.9,42.8,12.5,43.3,12.5z"/>
	<path class="st0" d="M38.3,19.5c0-0.6-0.4-1.3-1.1-1.6l-10.9-5.7c-1.1-0.5-2.6-0.5-3.6,0L11.9,18c-0.6,0.3-1.1,1-1.1,1.6
		s0.4,1.3,1.1,1.6L22.7,27c0.5,0.3,1.2,0.4,1.8,0.4c0.6,0,1.3-0.1,1.8-0.4l10.8-5.8C37.9,20.8,38.3,20.2,38.3,19.5z M25.4,25.1
		c-0.4,0.2-1.3,0.2-1.7,0l-10.5-5.6l10.5-5.6c0.4-0.2,1.3-0.2,1.7,0l10.5,5.6L25.4,25.1z"/>
	<path class="st0" d="M37.5,25.4c-0.2-0.5-0.9-0.6-1.4-0.4l-10.8,5.8c-0.4,0.2-1.3,0.2-1.7,0L12.9,25c-0.5-0.2-1.1-0.1-1.4,0.4
		c-0.2,0.5-0.1,1.1,0.4,1.4l10.8,5.7c0.5,0.3,1.2,0.4,1.8,0.4c0.6,0,1.3-0.1,1.8-0.4l10.8-5.8C37.6,26.4,37.9,25.9,37.5,25.4z"/>
	<path class="st0" d="M36.1,30.6l-10.8,5.8c-0.4,0.2-1.3,0.2-1.7,0l-10.8-5.8c-0.5-0.2-1.1-0.1-1.4,0.4c-0.2,0.5-0.1,1.1,0.4,1.4
		l10.8,5.7c0.5,0.3,1.2,0.4,1.8,0.4c0.6,0,1.3-0.1,1.8-0.4L37,32.3c0.5-0.2,0.6-0.9,0.4-1.4C37.3,30.5,36.7,30.3,36.1,30.6z"/>
</g>
</svg>
