<?xml version="1.0" encoding="utf-8"?>
<!-- Generator: Adobe Illustrator 21.0.0, SVG Export Plug-In . SVG Version: 6.00 Build 0)  -->
<svg version="1.1" id="图层_1" xmlns="http://www.w3.org/2000/svg" xmlns:xlink="http://www.w3.org/1999/xlink" x="0px" y="0px"
	 viewBox="0 0 48 48" style="enable-background:new 0 0 48 48;" xml:space="preserve">
<style type="text/css">
	.st0{fill:#C7CAD9;}
</style>
<g>
	<path class="st0" d="M43.5,18.7c-0.6-0.3-1.4-0.3-2.1,0.1l-15.7,11L18.4,24l0,0c-1.1-0.8-2.6-0.8-3.7,0.1L4.3,33.9
		c-0.6,0.5-1.1,1.4-1.1,2.3v4.5c0,1.6,1.3,2.9,2.9,2.9h35.4c1.6,0,2.9-1.3,2.9-2.9v-0.5c0-0.5-0.4-1-1-1c-0.5,0-1,0.4-1,1v0.5
		c0,0.5-0.4,1-1,1H6.2c-0.5,0-1-0.4-1-1v-4.5c0-0.3,0.1-0.5,0.3-0.8l10.4-9.7c0.3-0.3,0.9-0.3,1.2,0l7.4,5.9l0,0
		c0.5,0.4,1.4,0.4,2,0l16-11.1l0,0v11.7c0,0.5,0.4,1,1,1c0.5,0,1-0.4,1-1V20.5C44.6,19.7,44.2,19,43.5,18.7z"/>
	<path class="st0" d="M44.4,4.8c-0.2-0.3-0.6-0.5-1.1-0.4l-5.2,0.8C37.4,5.3,36.9,6,37,6.7c0.1,0.6,0.8,1.2,1.5,1.1l1.1-0.1L26,19.2
		l-7-5.7l0,0c-0.7-0.4-1.4-0.4-2.1,0.1L5,23.5c-0.4,0.3-0.4,1-0.1,1.4c0.2,0.2,0.4,0.3,0.8,0.3c0.2,0,0.4-0.1,0.6-0.2L18,15.3
		l7.1,5.7l0,0c0.5,0.4,1.4,0.4,2,0l0,0L41.5,8.8l-0.4,2c-0.1,0.6,0.3,1.4,1.1,1.5h0.2c0.6,0,1.2-0.4,1.3-1.1l1-5.2
		C44.9,5.6,44.6,5.2,44.4,4.8z"/>
</g>
</svg>
