<?xml version="1.0" encoding="utf-8"?>
<!-- Generator: Adobe Illustrator 21.0.0, SVG Export Plug-In . SVG Version: 6.00 Build 0)  -->
<svg version="1.1" id="图层_1" xmlns="http://www.w3.org/2000/svg" xmlns:xlink="http://www.w3.org/1999/xlink" x="0px" y="0px"
	 viewBox="0 0 48 48" style="enable-background:new 0 0 48 48;" xml:space="preserve">
<style type="text/css">
	.st0{fill:#C7CAD9;}
</style>
<path class="st0" d="M43.4,42.2c-1-4.9-3.9-9.2-8-12.1c-0.5-0.3-1.1-0.2-1.5,0.2c-0.3,0.5-0.2,1.1,0.2,1.5c3.7,2.6,6.2,6.5,7.1,10.9
	v0.1h-0.1H6.7H6.6v-0.1c1.7-8.1,8.8-13.9,17.1-14.1c0.1,0,0.2,0,0.4,0c3.4,0,6.6-1.4,9-3.8s3.8-5.6,3.8-9s-1.4-6.6-3.8-9
	S27.3,3,24,3s-6.6,1.4-9,3.8s-3.8,5.6-3.8,9s1.4,6.6,3.8,9c0.9,0.9,2.1,1.8,3.4,2.4c-0.4,0.1-0.7,0.2-1.1,0.4
	c-2.1,0.7-4.1,1.9-5.8,3.4c-3.5,2.8-6,6.9-6.8,11.3c-0.1,0.6,0,1.4,0.4,1.9C5.4,44.7,6,45,6.8,45h34.5c0.7,0,1.4-0.3,1.8-0.8
	C43.4,43.6,43.5,42.8,43.4,42.2z M13.4,15.8c0-5.9,4.7-10.7,10.6-10.7s10.6,4.7,10.6,10.6c0,5.8-4.7,10.6-10.5,10.6H24
	c-0.1,0-0.2,0-0.3,0C17.9,26.2,13.4,21.5,13.4,15.8z"/>
</svg>
