<svg version="1.1" id="图层_1" xmlns="http://www.w3.org/2000/svg" x="0" y="0" viewBox="0 0 76 76" xml:space="preserve"><style>.st1{fill:#00a0e9}</style><path d="M10.4 6.4l57 2.4L76 52l-.2 11.9-26.1 5.6s-35.5-1.5-36-1.8-12.6-8.2-11.8-9.6 2.6-47.5 2.6-47.5l5.9-4.2z" fill="#fff"/><path class="st1" d="M76 52V14.7C76 6.6 69.4 0 61.3 0H14.7C6.6 0 0 6.6 0 14.7v46.7C0 69.4 6.6 76 14.7 76h46.7c7.2 0 13.2-5.2 14.4-12-3.9-1.7-20.6-8.9-29.4-13.1-6.6 8-13.6 12.9-24.1 12.9-10.5 0-17.5-6.5-16.7-14.4.6-5.2 4.1-13.7 19.6-12.2 8.2.8 11.9 2.3 18.6 4.5 1.7-3.2 3.2-6.6 4.2-10.3H18.5v-2.9H33v-5.2H15.2v-3.2H33v-7.6s.2-1.2 1.5-1.2h7.3v8.8h19v3.2h-19v5.2h15.5c-1.4 5.8-3.6 11.1-6.3 15.8 4.5 1.4 25 7.7 25 7.7z"/><path class="st1" d="M8.8 48.8c-.6 2.9 1.2 9.9 12.3 9.9 6.8 0 13.4-4.1 18.8-11.2-7.6-3.7-14-5.5-21.1-5.5-6.2.1-9.4 3.9-10 6.8z"/></svg>