<svg version="1.1" id="图层_1" xmlns="http://www.w3.org/2000/svg" x="0" y="0" viewBox="0 0 76 76" xml:space="preserve"><style>.st0{fill:#14826c}</style><path class="st0" d="M74.8 31.7C72.2 15.3 58.1 3.2 45.8 2v19c0 5.1 0 5.1-5.1 5.6-.5 0-1.3.5-1.3.8-.1 3.4-.1 6.7-.1 10.2h8.1c2.6 0 2.9-.3 2.9-2.8V13.2 11C60.8 14.4 71 28.8 67.5 44.4c-3.2 14.9-17 23.4-25.5 23.1 0-5.4 0-10.8.1-16.2 0-.4.9-1.2 1.5-1.2 1.7-.2 3.3-.1 5-.1 1.1 0 1.8-.3 1.8-1.6v-9.5c-3 0-6 .1-8.9 0-1.8-.1-2.3.6-2.2 2.3.1 2.3 0 4.5 0 6.8s-.1 2.3-2.6 1.8c0-2.7-.1-5.5 0-8.3.1-2-.4-2.8-2.5-2.6-2.8.2-5.6 0-8.6 0 0 3.1-.1 6.4.1 9.7 0 .5 1 1.2 1.6 1.2 1.5.2 3.1.1 4.6 0 1.5-.1 2 .5 2 1.9-.1 4.1 0 8.1 0 12.2v3.5C22.8 67 9.8 56.9 8 41.5c-1.7-14.8 7.9-27.3 17.5-30.6v24c0 1.1 0 2.4 1.4 2.5 3.2.1 6.5 0 9.8 0v-7.1c0-3.7 0-3.7-3.7-3.9-2.6-.1-3-.6-3-3.1V3.9c0-.7-.1-1.4-.1-2.1C15 4.4-1.7 20 1 42.5c2.4 20 20 35.2 41.8 32.6 19.1-2.3 35.7-20.1 32-43.4z"/><path class="st0" d="M34.8 20c0 5.1-.3 4.2 4.4 4.3 1.5 0 2-.4 2-1.9-.1-3.3 0-6.5 0-9.8v-8c0-4 0-4-4.1-3.9-1.7 0-2.3.6-2.3 2.3v17z"/></svg>