<svg xmlns="http://www.w3.org/2000/svg" viewBox="0 0 76 76"><path d="M57.8 64.3c.7-2.4 1.3-4.7 1.9-7.2-.6-.1-1-.2-1.5-.2-2.4 0-4.8.2-7.2.2-2.4 0-4.3 0-5.5 2.9-1.3 3.2-4.8 4.1-8.1 4.4-7.5.9-14.1-4.5-14.1-11.4 0-6.3 4.3-10.9 10.8-11.6 6.3-.7 11.4 2.8 12.8 8.9.1.6.3 1.1.4 1.6h12c1.8-7.6-5.1-17.8-14.3-21.5-11.5-4.6-25.2-.7-30.9 9.1-3.6 6.3-4.3 13-2.6 20 1.7 7 5.6 12.5 12.3 15.7-.1.2-.2.3-.2.5-1.7-.3-3.4-.5-5-1-4.6-1.3-8.5-3.9-11.7-7.5-2.5-2.9-3.8-6.1-3.8-10 .5-13.2.4-26.4.4-39.5 0-1.1.2-2 1.2-2.7C11.2 10.6 17.6 6 24 1.6c.6-.4 1.3-.7 2.4-1.2v25.7c.2.2.3.4.5.6 7.4-9.6 16.7-13.2 28.2-9.4 6.9 2.3 12 6.9 15.1 13.6 6 12.8.4 27.8-12.4 33.4z" fill="#1d2088"/></svg>