<svg version="1.1" id="图层_1" xmlns="http://www.w3.org/2000/svg" x="0" y="0" viewBox="0 0 76 76" xml:space="preserve"><style>.st0{fill:#e60012}</style><path class="st0" d="M38.2.2C17.2.1 0 17 .2 38c.2 21.2 16.6 37.7 38 37.8 21 0 37.5-17.2 37.6-37.5C75.9 16.9 58.8.4 38.2.2zM36 68.3C21.5 67.4 7 55 7.7 37.1c0-14.5 12.7-29.8 31.2-29.5 16 .3 30.7 14.7 29.5 32.7-1 14.2-14 29.2-32.4 28z"/><path class="st0" d="M16.8 34.7h12.4v5.8H16.9v16.8h18.3V52H22.9v-6.2h12.3V29H22.9v-5.7h12.4v-5.1H17c-.2 5.5-.2 10.9-.2 16.5zM46.7 34.7H59V18.2H40.7v5.2h12.5v5.8H40.6c0 4.9.1 9.6 0 14.4-.1 2 .6 2.5 2.5 2.4 3.3-.2 6.7 0 10.1 0v6.3H40.8v5.1h18.3V40.5H46.7v-5.8z"/></svg>