<svg xmlns="http://www.w3.org/2000/svg" viewBox="0 0 76 76"><path d="M67 44.4c-.5 2.7-.9 5.1-1.5 7.4-.1.4-1 .8-1.6.8-2.8.1-5.7.1-8.5 0-1.3 0-1.7.4-2 1.7-1.2 5.7-2.4 11.4-3.6 17.2-.2 1.1-.5 1.9-2 1.9-11.6-.1-23.1 0-34.7 0-.4 0-.8-.1-1.4-.2 1.4-6.8 2.8-13.5 4.3-20.5H.2c.8-4.2 1.6-8.1 2.4-11.9.1-.7.3-1.3.4-2 1.1-5 1.1-5 6.4-5 2.9 0 5.8-.1 8.7 0 1.3 0 1.9-.4 2.2-1.7 1.1-5.7 2.4-11.5 3.6-17.2.3-1.3.8-1.8 2.1-1.8 4.5.1 8.9-.1 13.4.1 1.8.1 2.5-.6 2.7-2.3.4-2.3.9-4.5 1.3-6.7.2-.9.5-1.6 1.7-1.6h29.6c.3 0 .5.1 1 .2-.6 2.7-1.1 5.2-1.7 8H48.6c-1.4 0-2.1.3-2.3 1.8-.3 2.3-1 4.6-1.4 6.9-.2 1.4-.7 1.9-2.2 1.9-4.7-.1-9.3 0-14-.1-1.5 0-1.9.6-1.7 2.2h18.4c1.3 0 1.9-.3 2.1-1.7.4-2.5.9-4.9 1.6-7.3.2-.6 1-1.4 1.5-1.4 7.4-.1 14.7 0 22.1 0 .1 0 .2.1.7.3-.5 2.4-1 4.9-1.6 7.3-.1.3-1.1.6-1.7.6-5.3 0-10.5.1-15.8 0-1.5 0-2.2.4-2.4 1.9-.3 2.1-1 4.2-1.3 6.3-.2 1.9-1.1 2.2-2.8 2.2-7-.1-14.1 0-21.1 0-1.2 0-2.1.2-2 2h17.1c-1.3 6.5-2.6 12.6-3.9 18.8H22.2c-1.4 0-2 .5-1.7 2.2h18.4c1.3 0 1.9-.4 2.1-1.8 1.1-5.8 2.4-11.6 3.6-17.4.2-.9.3-1.8 1.7-1.8h21.9c.2 0 .5.1.9.2-.5 2.2-1 4.4-1.4 6.5-.2 1.2-.7 1.5-1.9 1.5-5.3-.1-10.5 0-15.8-.1-1.6 0-2.2.5-2.5 2-1.1 5.5-2.3 11-3.4 16.4-.2.8-.4 1.6-.6 2.5H20.2c-1.4 0-2.2.3-1.8 2.1.7 0 1.3.1 2 .1h23.9c1.5 0 2.3-.3 2.6-2 1.1-5.6 2.4-11.1 3.5-16.6.3-1.6.8-2.4 2.7-2.3 4.4.5 8.9.4 13.9.4zm-44.6-.6c.1.2.2.3.4.5 3.8 0 7.6.1 11.5-.1.5 0 .9-1.1 1.3-1.6-.1-.2-.2-.4-.4-.5-3.8 0-7.6-.1-11.5.1-.5 0-.9 1.1-1.3 1.6zm-4.5-1.7H8.5c-1.6 0-2 .7-1.6 2.3 3 0 6-.1 9.1 0 1.6 0 2.2-.5 1.9-2.3z" fill="#0f7f40"/></svg>