<svg version="1.1" id="图层_1" xmlns="http://www.w3.org/2000/svg" x="0" y="0" viewBox="0 0 76 76" xml:space="preserve"><style>.st0{fill:#064d29}</style><path class="st0" d="M25.9 3.2c1.2 1 2.3 2 3.6 3.2-3.5 4.3-7 8.5-10.4 12.6-3.2 3.8-3.2 5.8.1 9.5 5 5.7 10 11.4 14.9 17.2 3.5 4 3.5 9.1.2 13.2-3.4 4.3-6.9 8.6-10.4 12.8-.5.5-1.3 1.1-1.9 1.1-5.3.1-10.6.1-15.9.1H4.4c.9-1 1.6-1.8 2.2-2.4 2.5-2.7 5.1-5.4 7.6-8.1 2.2-2.4 2.3-3.6.2-6.1-3.8-4.2-7.4-8.4-11-12.7C.8 40.5-.7 37 1 32.9c.4-1 1-1.9 1.7-2.7 7.5-8.8 14.9-17.6 22.4-26.4.3-.2.5-.3.8-.6zM71.7 72.9H54.1c-.6 0-1.4-.5-1.8-1-3.6-4.3-7.1-8.6-10.6-12.9-3.4-4.4-3.2-9.3.5-13.5 5.1-5.8 10.1-11.6 15.2-17.5 2.5-2.8 2.5-5.2.2-8.1-3.1-3.8-6.2-7.6-9.3-11.3-.5-.7-1.1-1.3-1.7-2.1 1.2-1.1 2.4-2.1 3.6-3.3 3 3.5 5.9 6.9 8.8 10.3 4.6 5.4 9.1 10.7 13.7 16.1 4.1 4.8 4.1 9 0 13.9-3.5 4.2-7.1 8.3-10.6 12.4-2.5 2.9-2.5 4.2.2 7 3 3.1 6 6.4 9.4 10z"/><path d="M51.7 21.7c-2.5 0-4.9.1-7.4 0-.5 0-1.1-.5-1.5-.9-1.5-1.5-3-3.1-4.6-4.8-2.4 2.7-4.6 5.2-6.7 7.6 1.9 2 4.1 4.5 6.8 7.4 1.6-1.8 3-3.5 4.5-5 .6-.6 1.7-1 2.6-1.1 2.1-.2 4.3-.1 6.4-.1-.7 7.4-6.9 12.7-14.4 12.4-7.2-.3-13.1-6.5-13.2-13.7 0-7.6 5.6-13.6 13.2-14 7.2-.5 13.5 4.8 14.3 12.2z" fill="#cf1429"/></svg>