<svg version="1.1" id="图层_1" xmlns="http://www.w3.org/2000/svg" x="0" y="0" viewBox="0 0 76 76" xml:space="preserve"><style>.st3{fill:#fff}</style><path d="M27.3 59H2.7C1 59-.2 57.2.5 55.6l15-34.8c1-2.4 3.3-3.9 5.9-3.9h24.1L27.3 59z" fill="#e60012"/><path d="M49.1 59h-31c-1.7 0-2.9-1.8-2.2-3.4l15-34.8c1-2.4 3.3-3.9 5.9-3.9h30.5L49.1 59z" fill="#00508e"/><path d="M54.7 59H37.3c-1.7 0-2.9-1.8-2.2-3.4l15-34.8c1-2.4 3.3-3.9 5.9-3.9h17.4c1.7 0 2.9 1.8 2.2 3.4l-15 34.8c-1.1 2.4-3.4 3.9-5.9 3.9z" fill="#00908c"/><path class="st3" d="M23.6 27.4h-2.5c-.2 1.1-.5 2.3-.7 3.4-.3 1.2-.5 2.3-.8 3.5-.2.7-.5 1.2-1.2 1.5-.4.2-.9.2-1.3.1-.5-.2-.9-.7-.7-1.3.2-1.1.4-2.1.7-3.2.3-1.3.7-2.6 1-3.9h-2.9c-.5 2-.9 4-1.4 6-.1.5-.2 1-.2 1.5 0 .1 0 .2-.1.3v.5c.1.9.6 1.4 1.5 1.7 1.1.4 2.3.3 3.4.1.9-.2 1.7-.5 2.3-1.2.6-.6.9-1.4 1.1-2.1.5-2 1-4 1.6-6.1.1-.3.2-.5.2-.8zM49.7 34.3c.1-.2.2-.4.4-.4h1.4c.8 0 1.5-.2 2.2-.5 1.5-.8 2.2-2.1 2.3-3.7.1-1.2-.5-1.9-1.7-2.1-.3 0-.5-.1-.8-.1h-4.7c0 .1 0 .1-.1.2-.7 3-1.4 5.9-2.1 8.9-.1.4-.2.7-.3 1.1h2.5c.4-1.2.7-2.3.9-3.4zm1.3-5.4c.6 0 1.1.1 1.7.2.4.1.7.6.7 1.1-.1 1.2-1 2-2.1 2.1h-1c.2-1.2.4-2.3.7-3.4zM68.1 31.6c-.6.1-1.3.2-1.9.3-.1 0-.2.1-.3.3-.4.8-.8 1.5-1.1 2.3-.1-.1-.1-.2-.1-.3 0-.7-.1-1.5-.1-2.2 0-.3-.1-.4-.4-.3-.6.1-1.1.2-1.7.3-.2 0-.3.1-.3.4.1.5.1 1 .2 1.5.1 1.2.3 2.4.4 3.6 0 .2 0 .4-.1.5l-1.8 3c-.1.3-.3.4-.6.4-.1 0-.2 0-.2.1-.1.4-.2.8-.4 1.2h1.5c.6 0 1.1-.3 1.4-.9.5-.9 1-1.7 1.4-2.5 1.1-1.9 2.2-3.9 3.3-5.8l.9-1.5v-.2c.1-.2 0-.3-.1-.2z"/><path class="st3" d="M61.3 42.8h-4.8c-.1 0-.3 0-.3.1-.1.4-.2.8-.4 1.2h2.3c-.1.3-.2.5-.2.7 0 .2-.2.3-.4.3h-2c-.1.4-.2.8-.4 1.2h2c-.1.2-.2.3-.3.4-.4.5-.7 1-1.1 1.5-.3.5-.8.7-1.4.6 0-.2.1-.3.1-.5-.2 0-.3-.1-.5-.1 0-.1 0-.2.1-.3.6-1.9 1.2-3.9 1.8-5.8.2-.6.2-.6.8-.7h.1c0-.1.1-.3.1-.4v.4c0 .7.2.9.9 1 .5.1 1 0 1.6 0 0 0 .1 0 .1-.1.1-.4.3-.8.4-1.3h-.4c-.3 0-.4-.1-.4-.4V40h-3.5c-.9 0-1.9 0-2.7.5h-.1c0-.2.1-.4.1-.6H51c-.2 0-.3.1-.3.2-.8 2.6-1.5 5.2-2.3 7.7-.1.2-.1.4-.4.3 0 0-.1 0-.1.1-.1.4-.3.8-.4 1.3h3.9c0 .2 0 .3-.1.4h2c.2-.5.2-.5.6-.4 0 .1 0 .2-.1.4h1.6c.5 0 .9-.2 1.2-.5.3-.3.5-.6.7-.9.2-.2.3-.4.5-.7.1.5.1.9.2 1.3 0 .3.2.5.4.6.5.3 1.1.2 1.6.2l.1-.1c.1-.4.3-.8.4-1.3h-.4c-.3 0-.4-.1-.4-.4 0-.4-.1-.8-.2-1.2 0-.2-.1-.2-.3-.2h-.6c.2-.4.4-.5.8-.5h1.7c.1 0 .2 0 .2-.1.1-.4.2-.7.4-1.2h-2.1c.1-.4.2-.7.3-1h1.9c.1 0 .2 0 .3-.1.1-.4.3-.8.4-1.3-.3.3-.8.3-1.2.3zm-9.2 5.4s-.1.1-.2.1h-1.4c.1-.5.3-.9.4-1.3 0-.1.1-.2.2-.2h1.4c-.1.5-.3 1-.4 1.4zm.9-3c0 .1-.1.1-.2.1-.5.1-1 .3-1.5.4.1-.4.2-.7.3-1.1.2-.5.2-.5.7-.5h1c-.1.4-.2.8-.3 1.1zm.6-2.4c-.5.1-1 .2-1.5.4.1-.5.3-1 .5-1.5 0 0 .1-.1.2-.1h1.4c-.1.4-.2.7-.3 1.1-.2 0-.2 0-.3.1zM48.8 40.1h-2.4c-1 0-1.9.1-2.7.8 0 0-.1 0-.2.1.1-.3.1-.5.2-.8h-1.6c-.2 0-.3.1-.4.3-.4 1.4-.9 2.8-1.3 4.2-.5 1.6-.9 3.1-1.4 4.7-.1.4.1.8.6.8h2.7c.1 0 .2 0 .2-.1.1-.4.3-.9.4-1.4-.4 0-.8.1-1.2.1-.4 0-.5-.1-.4-.4.2-.8.5-1.7.7-2.5.1-.3.2-.4.5-.4h2.8c.3 0 .6 0 .9-.1.7-.2 1.1-.7 1.3-1.4.3-.9.5-1.8.8-2.7.2-.3.4-.8.5-1.2zm-3.6 4.1h-2.7c0-.2.1-.3.1-.4 0-.1.1-.1.2-.1h2.8c0 .4 0 .5-.4.5zm1-2c0 .1-.1.1-.2.1h-.6c-.9-.1-1.7.1-2.5.7.1-.5.3-.9.4-1.4h3.1c-.1.2-.2.4-.2.6zM54.4 35.8c-.1 1.2.6 1.8 1.8 1.9.5.1 1-.1 1.5-.4v.3H60c.1 0 .2-.1.2-.2.4-1.7.8-3.5 1.1-5.3 0-.2.1-.3.1-.5h-.2c-.7.1-1.3.2-2 .3-.1 0-.3.1-.4.2-.5-.5-.8-.6-1.7-.4-.3.1-.7.3-1 .5-1.2.9-1.6 2.2-1.7 3.6zm2.8-2.2c.1-.2.3-.4.5-.5.3-.2.6 0 .8.3.1.2.1.4.1.6-.1.6-.3 1.1-.4 1.7-.1.3-.3.5-.6.6-.5.2-.9 0-.9-.7 0-.6.2-1.3.5-2zM28.2 31.6c-.7-.1-1.4.1-2.1.5v-.2c.1-.4.1-.4-.3-.3-.6.1-1.2.2-1.9.3-.2 0-.3.1-.3.3-.1.4-.1.9-.2 1.3l-.9 3.9c-.1.3 0 .3.3.3h1.8c.2 0 .3-.1.3-.3.2-1.1.5-2.3.7-3.4.1-.4.3-.6.7-.6.3 0 .4.1.4.4 0 .2 0 .5-.1.7-.2 1-.4 2-.7 3 0 .1-.1.3.2.2H28c.2 0 .2-.1.3-.3.1-.7.3-1.3.4-2 .2-.8.3-1.5.5-2.3.1-.9-.3-1.5-1-1.5zM41.3 37.5c.4 0 .4 0 .5-.4.2-1.1.5-2.2.7-3.3.1-.4.2-.5.6-.6.3 0 .5.1.5.4 0 .2 0 .4-.1.6-.2 1-.4 2-.7 3-.1.3 0 .3.3.3h1.7c.2 0 .3 0 .3-.2.3-1.3.6-2.7.8-4 .1-.3.1-.6 0-.9-.1-.6-.7-.9-1.4-.9-.6 0-1.2.2-1.8.6 0-.2.1-.3.1-.4 0-.2 0-.3-.2-.2-.7.1-1.3.2-2 .3-.2 0-.3.1-.3.3 0 .3 0 .5-.1.8-.3 1.5-.6 2.9-.9 4.4v.3c.8-.1 1.4-.1 2-.1zM35.6 37.7c1.1 0 2-.3 2.7-1.1.9-1 1.1-2.2 1.1-3.5 0-.7-.4-1.2-1.1-1.4-.5-.1-1-.2-1.6-.2-1.2 0-2.2.5-2.8 1.5-.6.9-.8 1.9-.7 2.9 0 .7.4 1.3 1.1 1.5.4.2.9.3 1.3.3zm-.1-2.6c.1-.5.2-.9.4-1.4 0-.1.1-.2.2-.3.2-.3.5-.5.8-.4.2.1.3.3.3.7h.1c-.2.6-.3 1.3-.6 1.9-.1.2-.3.4-.5.6-.3.2-.7.1-.7-.4-.1-.2 0-.5 0-.7zM36.9 48.8c-.2 0-.3-.1-.2-.4.2-.4.3-.9.4-1.4 0-.2.1-.2.3-.2h1.7c.1 0 .2 0 .2-.1.1-.4.3-.8.4-1.3h-2.2c.1-.3.2-.6.2-.8 0-.2.1-.2.3-.2h1.7c.1 0 .2 0 .2-.1.1-.4.2-.8.4-1.2H35.1c-.1 0-.2 0-.2.1-.1.4-.2.8-.4 1.2h1.2c-.1.3-.2.6-.2.9 0 .2-.1.2-.3.2h-.8c-.1 0-.2 0-.2.1-.1.4-.3.8-.4 1.3H35c-.2.8-.4 1.5-.7 2.2-.2.5.1 1 .6 1 1 .1 2 0 3 0 .1-.4.3-.9.4-1.4H38c-.3 0-.7.1-1.1.1z"/><path class="st3" d="M46.2 45.7c-.3 0-.5.1-.6.4 0 .1-.2.3-.3.4-.2.1-.4 0-.6 0v-.7h-1.8v.1c0 1.2-.1 2.4-.1 3.6 0 .3.2.5.5.5.7 0 1.5.1 2.2.1.1 0 .2-.1.2-.1.1-.4.2-.8.4-1.2-.4 0-.8 0-1.2.1-.2 0-.4 0-.4-.3v-1c.4 0 .8 0 1.2-.1.6 0 1-.3 1.1-.9.1-.3.1-.6.2-1-.1.1-.4.1-.8.1zM30.2 33.4c-.1.8-.3 1.7-.5 2.5-.1.4-.3.9-.4 1.3 0 .1-.1.3.1.3h2.1c.1 0 .2-.1.2-.2.3-1.4.6-2.8 1-4.2 0-.1 0-.2.1-.3-.8.1-1.5.2-2.2.3-.3 0-.3.1-.4.3zM37.8 40.1c-.3 0-.7-.1-1 .1-.2.1-.3.5-.5.8v.1c-.2.4-.4.6-.9.6-.1 0-.2 0-.3.1-.1.4-.3.8-.4 1.2h.8c.6 0 1.2-.2 1.7-.6.1-.1.3-.1.4-.1h2.2c.5 0 .5 0 .7-.5l.3-.9h-2.2c.1-.2.2-.5.4-.7-.4-.1-.8-.1-1.2-.1zM32.7 31.1c-.6-.4-1.8-.1-2.2.5-.3.4-.1.8.3 1 .2.1.4.1.6.1h.2c.5 0 .9-.2 1.3-.6.3-.3.2-.8-.2-1z"/></svg>