<svg version="1.1" id="图层_1" xmlns="http://www.w3.org/2000/svg" x="0" y="0" viewBox="0 0 76 76" xml:space="preserve"><style>.st1{fill:#fff}</style><path d="M61.2.1H14.8C6.7.1.1 6.6.1 14.8v46.5C.1 69.4 6.7 76 14.8 76h46.4c8.1 0 14.7-6.6 14.7-14.7V14.8C75.9 6.6 69.3.1 61.2.1z" fill="#20c364"/><path class="st1" d="M29.5 13.1c-12.3 0-22.3 8.3-22.3 18.6 0 5.6 3 10.6 7.7 14 .4.3.6.7.6 1.2 0 .2 0 .3-.1.5-.4 1.4-1 3.6-1 3.7 0 .2-.1.4-.1.5 0 .4.3.7.7.7.2 0 .3-.1.4-.1l4.9-2.8c.4-.2.8-.3 1.2-.3.2 0 .4 0 .7.1 2.3.7 4.7 1 7.3 1h1.2c-.5-1.4-.7-3-.7-4.5 0-9.4 9.1-16.9 20.3-16.9h1.2c-1.7-8.9-10.9-15.7-22-15.7zM22 28.7c-1.6 0-3-1.3-3-3 0-1.6 1.3-3 3-3 1.6 0 3 1.3 3 3s-1.3 3-3 3zm14.9 0c-1.6 0-3-1.3-3-3 0-1.6 1.3-3 3-3 1.6 0 3 1.3 3 3s-1.4 3-3 3z"/><path class="st1" d="M62.4 57.3c3.9-2.8 6.4-7 6.4-11.7 0-8.5-8.3-15.5-18.6-15.5-10.2 0-18.6 6.9-18.6 15.5 0 8.5 8.3 15.5 18.6 15.5 2.1 0 4.2-.3 6.1-.8.2-.1.4-.1.5-.1.4 0 .7.1 1 .3l4.1 2.3c.1.1.2.1.4.1s.3-.1.4-.2c.1-.1.2-.3.2-.4 0-.2-.1-.3-.1-.5 0-.1-.5-2-.8-3.1 0-.1-.1-.3-.1-.4 0-.4.2-.7.5-1zM44.1 42.2c-1.4 0-2.5-1.1-2.5-2.5s1.1-2.5 2.5-2.5 2.5 1.1 2.5 2.5c-.1 1.4-1.2 2.5-2.5 2.5zm12.3 1c-1.4 0-2.5-1.1-2.5-2.5s1.1-2.5 2.5-2.5 2.5 1.1 2.5 2.5-1.1 2.5-2.5 2.5z"/></svg>