<svg version="1.1" id="图层_1" xmlns="http://www.w3.org/2000/svg" x="0" y="0" viewBox="0 0 76 76" xml:space="preserve"><style>.st0{fill:#962064}</style><path class="st0" d="M75.3 52.8c-1-1.3-1.9-2.7-3-4-1.6-2.3-3.3-4.6-5-6.9-.1-.1-.1-.2 0-.3.5-.5.9-1 1.4-1.5 2.2-2.4 4.3-4.6 6.5-7l.1-.1H70.2c-.1 0-.2 0-.3.1C68 35 66 37 64.2 39c-.1.1-.2.2-.3.4h-.1v-.3-12c0-.2-.1-.2-.2-.2h-3.9c-.4 0-.4 0-.4.4V53h4.5v-8.4l.2.2c2 2.7 4.1 5.4 6.1 8.1.1.1.2.1.3.1h5c-.1 0-.1-.2-.1-.2zM39.9 36.4c-.3-1.3-1.1-2.4-2.5-2.9-1.1-.4-2.3-.5-3.4-.6-1.5 0-3.1.1-4.6.4-1 .2-2 .5-3.1 1-.1.1-.2.1-.2.2V39c.1 0 .1-.1.2-.1.4-.2.7-.4 1.1-.6 1.2-.6 2.6-1 4-1.3.9-.1 1.7-.2 2.7 0 .9.2 1.4.8 1.5 1.7v2h-.2c-1.4-.3-2.9-.4-4.4-.3-1 .1-2 .3-3.1.8-1 .5-1.8 1.1-2.5 2.2-.5.8-.8 1.8-.9 2.8-.1 1.1 0 2.3.5 3.4 1 2.3 2.8 3.4 5.1 3.7 1 .1 2 0 3.1-.1s2.3-.3 3.4-.4c1-.1 2.2-.3 3.2-.2.1 0 .2 0 .2-.2V38.3c.1-.7 0-1.3-.1-1.9zm-4.3 12.9c-.6.1-1.2.2-1.9.2-.8.1-1.7.2-2.6.1s-1.5-.3-1.9-1c-.6-.9-.8-1.9-.3-3 .3-.7.9-1 1.6-1.2.8-.3 1.6-.4 2.6-.4.9 0 1.7.1 2.7.3.1 0 .2.1.2.2V49.2c-.3 0-.3.1-.4.1zM57 39.3c0-1-.1-2-.4-3-.4-1.3-1.1-2.3-2.5-2.8-1-.4-2.2-.6-3.3-.6-1.1 0-2.2 0-3.3.2-.7.1-1.5.2-2.3.3-.8.1-1.7.2-2.6.3h-.7v19.4h4.4v-.3-14.5-.5c0-.1 0-.2.2-.2.7-.1 1.3-.2 2-.2.7-.1 1.3-.1 2-.1.3 0 .6.1.9.2.5.2.7.6.8 1.1.2.7.2 1.5.2 2.3v12.4h4.5V53v-9.8c.2-1.5.2-2.7.1-3.9z"/><path d="M19.3 50.3h2.3v.1h-2.3z"/><path d="M23.3 44.8H5.5c-.2 0-.2 0-.2-.2v-.5c0-.2 0-.2.2-.2h17.8c.2 0 .3-.1.3-.2 0-.8-.3-.7-.3-.7H5.8c-.2 0-.4.1-.5 0s0-.3 0-.5c0-.4 0-.4.4-.4h17.6c-.1-.2-.1-.3-.2-.5-.2-.3-.4-.4-.6-.4h-17c-.2 0-.2 0-.2-.2v-.5c0-.3 0-.3.3-.3h16.5v-.1c-.2-.2-.3-.4-.5-.6-.1-.1-.2-.2-.4-.2H15c-.1 0-.2 0-.2-.2v-.6c0-.2.1-.2.2-.2h5.3v-.1c-.3-.2-.7-.4-1-.6-.2-.1-.4-.1-.6-.2h-3.5c-.2 0-.2 0-.2-.2v-.6c0-.2 0-.2.2-.2h2.1c.4-.1.8-.3 1.1-.4l.6-.3v-.1H5.4c0 .2 0 .2 0 0v-.5c0-.2 0-.2.3-.2h14.9l.7-.7v-.1H5.6c-.3-.1-.3-.2-.3-.3v-.5c0-.3 0-.3.3-.3H21.7c.1 0 .2 0 .2-.1.1-.2.2-.5.3-.7H5.6c-.2 0-.3-.1-.3-.1v-.8H21.9c.6 0 .6 0 .6-.6 0-.3 0-.3-.3-.3H5.5c-.1 0-.2 0-.2-.2v-.6c0-.2 0-.3.3-.3h16.7c.3 0 .3 0 .3-.3-.1-.4-.1-.5-.3-.5H5.7c-.2 0-.2 0-.2-.3v-.4c0-.3 0-.3.3-.3H22.2c-.1-.2-.2-.4-.2-.6-.1-.2-.2-.3-.4-.3h-4.9c-.2 0-.2 0-.2-.2v-.3c0-.5 0-.5.5-.5h4.2v-.1c-.2-.2-.4-.5-.7-.7 0 0-.1-.1-.2-.1h-3.7c-.1 0-.2 0-.2-.1v-.7c0-.1 0-.2.2-.2h2.3l-.2-.2c-.4-.2-.8-.3-1.1-.4-.8.1-1.5.1-2.2.1H1.3c-.4 0-.4 0-.4.4v29.6C.7 53 .7 53 1 53H15.6c.7 0 1.3-.1 2-.3.3-.1.7-.2 1-.4.1 0 .1-.1.2-.2h-2.4c-.1 0-.2 0-.2-.2v-.6c0-.2.1-.2.2-.2H20c.2 0 .5.1.7-.1.2-.2.5-.4.7-.6v-.1h-5c-.2 0-.2-.1-.2-.2v-.5c0-.2.1-.2.2-.2h5.5c.3 0 .5 0 .6-.4 0-.1.1-.1.1-.1.2-.3.2-.3-.2-.3H5.3c-.1 0-.2 0-.2-.2v-.6c0-.1 0-.2.2-.1H23.1c.1 0 .1-.1.2-.1.1-.2.1-.5.2-.7H5.6c-.4 0-.4 0-.4-.5s0-.5.5-.5h17.7c.1 0 .1-.1.1-.1v-.7c0-.3-.1-.3-.2-.3z" fill="#e4d803"/></svg>