<svg version="1.1" id="图层_1" xmlns="http://www.w3.org/2000/svg" x="0" y="0" viewBox="0 0 76 76" xml:space="preserve"><style>.st0{fill:#003b90}</style><path class="st0" d="M56.1 40.2c-.7 0-1.5.5-2 1C49 46.3 44 51.4 39 56.5c-1.1 1.1-1.8 1.2-3 0-4.7-4.8-9.5-9.6-14.3-14.4-1.9-1.9-1.9-2.3 0-4.2 4.6-4.7 9.2-9.3 13.7-14.1 1.4-1.4 2.2-1.4 3.6 0 4.8 4.8 9.7 9.6 14.6 14.3.8.8 1.5 1.5 2.5.4 2.7-2.9 5.3-5.7 8.2-8.7 0 0-.1-.2-.3-.4-7.2-7.3-14.5-14.6-21.8-21.8-1-1-2.4-1.8-3.7-2.3-3.7-1.5-7.6-1.2-11.3.1-18 6.3-28 23.7-24.3 41.7C6.5 64.9 21 75.2 36.3 75.8 53 76.4 67.9 65.2 72 49c.7-2.8.9-5.7 1.4-8.8-6.2 0-11.8-.1-17.3 0zM49.3 9.5c5.3 5.7 10.9 11.2 16.4 16.8.5.5 1 .9 1.2 1.1l7-7c-2.2-2.3-4.4-4.8-6.8-7.2C63.4 9.3 60 5 55.1 2.5c-6.2-3-12.5-3.2-18.8 0 5.4.4 9.4 3.1 13 7z"/></svg>