<svg version="1.1" id="图层_1" xmlns="http://www.w3.org/2000/svg" x="0" y="0" viewBox="0 0 76 76" xml:space="preserve"><style>.st0{fill:#fb2e1c}</style><path class="st0" d="M75.5 32.3h-1.7c-.3 0-.3 0-.3.3v5.7c0 .8-.5 1.4-1.4 1.4h-5c-.3 0-.4-.1-.4-.4v-1.1c0-.3.1-.4.4-.4h3.5c.2 0 .2 0 .2-.2v-5c0-.1-.1-.2-.2-.2h-5.7c-.4 0-.5-.1-.5-.5v-1.1c0-.4.1-.5.5-.5h10.5c.1.6.1 1.3.1 2zM25.6 36.6c-.2-.1-.3-.1-.5-.2-.6-.3-1.2-.6-1.7-.9-.7-.4-1.1-1.1-1.1-1.9v-.9c0-.2-.1-.3-.3-.3h-2.4c-.3 0-.4-.1-.4-.4v-1.1c0-.3.1-.4.4-.4H22c.2 0 .3-.1.3-.3v-.9c0-.3.1-.4.4-.4h1.7c.2 0 .4.1.4.4v.9c0 .2.1.2.2.2h6c.2 0 .3-.1.2-.3v-.9c0-.3.1-.4.4-.4h1.6c.3 0 .4.1.4.4v.7c0 .4 0 .4.4.4h2.2c.4 0 .4.1.4.4v1.1c0 .3-.1.4-.4.4h-2.1c-.4 0-.4 0-.4.4s0 .8-.1 1.2c-.1.7-.5 1.2-1 1.5-.6.4-1.3.7-1.9 1-.1 0-.2.1-.3.1v.1l.9.3c.7.2 1.3.4 2 .3h2.5c.4 0 .5.1.5.5v1c0 .3-.1.4-.4.4h-3.1c-1 0-2-.3-2.9-.7-.6-.3-1.1-.5-1.7-.8h-.4c-.9.4-1.8.8-2.8 1.1-.6.3-1.3.3-2 .3h-2.9c-.3 0-.4-.1-.4-.4v-1c0-.4.1-.5.5-.5h2.4c1 0 2-.2 2.9-.6 0 .4 0 .3.1.2 0 .1 0 .1 0 0zm2.4-4.2h-3c-.2 0-.3.1-.3.3v.6c0 .5.2.9.6 1.1.8.4 1.5.7 2.3 1.1.2.1.4.1.6 0l2.4-1.2c.3-.1.5-.4.5-.7v-.9c0-.2-.1-.3-.3-.3H28zM9.1 25.9h7.6c.3 0 .4.1.4.4v1c0 .3-.1.4-.4.4h-6c-.2 0-.2.1-.2.2v6.5c0 .3 0 .3.3.3H17.4c.2 0 .4.1.4.3v1.2c0 .3-.1.4-.4.4h-6.6c-.2 0-.3.1-.3.3v2.3c0 .3-.1.4-.4.4H8.2c-.3 0-.4-.1-.4-.4v-2.3c0-.3 0-.3-.3-.3H1.1c-.4 0-.5-.1-.5-.5v-1c0-.4.1-.5.5-.5h6.4c.3 0 .3 0 .3-.4v-6.3c0-.4 0-.4-.4-.4H1.6c-.4 0-.5-.1-.5-.5v-.9c0-.4.1-.5.5-.5h4.2c1.1.2 2.2.2 3.3.3 0-.1 0 0 0 0zM46.5 32.7v-5.6c0-.7.5-1.3 1.2-1.4h6.8c.5 0 1 .2 1.3.7.1.2.2.4.2.6v5.1c0 .8-.6 1.3-1.4 1.3H49c-.2 0-.3 0-.3.3v4.1c0 .2.1.3.3.3h1.4c.4 0 .5.1.5.5v.7c0 .3-.1.4-.4.4h-2.6c-.8 0-1.3-.6-1.3-1.4-.1-1.9-.1-3.7-.1-5.6zm4.7-1h2.4c.2 0 .2-.1.2-.2v-.8c0-.2-.1-.2-.2-.2h-4.8c-.2 0-.2.1-.2.2v.8c0 .2.1.3.3.3.8-.2 1.5-.1 2.3-.1zm0-3h2.3c.3 0 .3 0 .3-.3v-.7c0-.2-.1-.2-.2-.2h-4.7c-.2 0-.2.1-.2.2v.8c0 .2.1.3.3.3.7-.1 1.4-.1 2.2-.1zM40.8 31.9h-1.6c-.3 0-.4-.1-.4-.4v-1c0-.3.1-.4.4-.4h5.9c.3 0 .4.1.4.4v1.1c0 .3-.1.4-.4.4h-1.8c-.2 0-.3.1-.3.3v1c0 .2.1.3.3.3H45c.4 0 .5.1.5.5v.9c0 .4-.1.5-.5.5h-1.7c-.2 0-.3 0-.3.2v2.2c0 .2.1.3.3.3h1.3c.4 0 .5.1.5.5v.8c0 .3-.2.4-.4.4h-2.5c-.8 0-1.3-.6-1.3-1.3v-2.7c0-.3 0-.3-.3-.3h-1.3c-.3 0-.4-.1-.4-.4v-1.1c0-.3.1-.4.4-.4h1.4c.2 0 .3 0 .3-.2-.2-.7-.2-1.1-.2-1.6z"/><path class="st0" d="M28 27.9h-6.3c-.3 0-.3 0-.3.3v.6c0 .2-.1.3-.3.3h-1.3c-.2 0-.3-.1-.3-.3v-1.2c.1-.8.8-1.4 1.7-1.4h5.2c.3 0 .3 0 .3-.3 0-.7 0-.8.8-.8H29c.3 0 .4.1.4.4v.4c0 .2.1.3.3.3H35c1 0 1.7.7 1.7 1.7v.9c0 .3-.1.4-.4.4h-1.2c-.3 0-.4-.1-.4-.4v-.6c0-.2-.1-.3-.3-.3H28zM61.3 33.3h.7c.4 0 .4 0 .4.4v5.5c0 .4-.1.5-.5.5h-1.5c-.4 0-.5-.1-.5-.5v-4.6c0-.4 0-.4-.4-.4h-1.2c-.1 0-.2-.1-.3-.1 0-.1 0-.2.1-.2.9-1.2 1.9-2.3 2.8-3.5.2-.2.3-.3.6-.3h1.9c.1 0 .2 0 .3.1 0 .1 0 .2-.1.3-.7.9-1.4 1.7-2.1 2.6-.1 0-.1.1-.2.2zM21.3 47.5v1.9c0 .3 0 .3.3.3H25c.3 0 .3-.1.3-.3v-.9c0-.2-.1-.3-.2-.3h-1.5c-.3 0-.3 0-.3-.3v-.6c0-.1 0-.2.2-.2h3.1c.1 0 .2.1.2.2V49c0 .8-.7 1.5-1.5 1.7-.3.1-.5.1-.8.1h-2.3c-.9 0-1.8-.6-2.1-1.4-.1-.2-.1-.4-.1-.6v-2.6c0-1.3 1-2.2 2.2-2.2h2.4c.9 0 1.6.4 2 1.3.1.2.1.5.2.8 0 .1-.1.2-.2.2h-1c-.1 0-.2-.1-.2-.2v-.6c0-.2-.1-.3-.3-.3h-3.5c-.2 0-.2.1-.2.3-.1.8-.1 1.4-.1 2zM17.5 48.8v-.3-4c0-.3 0-.3.3-.3h.7c.3 0 .3 0 .3.3v6c0 .2-.1.3-.3.3h-.8c-.1 0-.3-.1-.4-.2-1.1-1.2-2.2-2.5-3.3-3.7-.2-.2-.4-.4-.5-.6l-.2-.2v4.3c0 .3 0 .3-.4.3h-.7c-.2 0-.3-.1-.3-.3v-6c0-.2.1-.3.3-.3h.8c.1 0 .3.1.4.2 1.3 1.4 2.5 2.8 3.8 4.3 0 .1.1.1.1.2.1.1.1.1.2 0zM38.1 46.1V50.5c0 .3 0 .3-.3.3h-.7c-.2 0-.2-.1-.2-.2v-.2-5.8c0-.4 0-.4.4-.4 1.1 0 .8-.1 1.5.7 1.1 1.2 2.2 2.5 3.3 3.7.1.1.1.2.2.3 0 0 .1 0 .1-.1v-.2-4.1c0-.3 0-.3.3-.3h.7c.2 0 .3.1.3.3v6c0 .2-.1.3-.3.3h-.8c-.1 0-.3-.1-.4-.2-1.2-1.4-2.4-2.8-3.7-4.1l-.4-.4zM1.9 47.5v-3c0-.2.1-.3.3-.3h4c1 0 1.9.7 2 1.5.1.5.1 1.1 0 1.6-.1.8-.8 1.2-1.5 1.4-.3.1-.6.1-.9.1H3.4c-.2 0-.3.1-.2.2v1.4c0 .3 0 .3-.4.3H2c-.2 0-.3-.1-.3-.3v-1.5c.2-.4.2-.9.2-1.4zm3.1.2h1.5c.2 0 .3 0 .3-.2v-1.9c0-.1-.1-.2-.2-.2H3.5c-.1 0-.2.1-.2.2v1.9c0 .1 0 .2.2.2H5zM50.8 47.5c.3.2.6.3.8.5.7.7.6 1.9-.2 2.5-.5.3-1 .4-1.5.4h-2.6c-.4 0-.6-.2-.6-.6V45c0-.4.2-.6.5-.6H50c.5 0 1 .2 1.3.6.7.7.5 1.8-.3 2.4-.1 0-.2 0-.2.1zm-2.1 2.4h.7c.3 0 .6-.1.9-.2.3-.1.5-.4.5-.8s-.2-.6-.5-.8c-.1-.1-.3-.1-.5-.1-.7 0-1.4 0-2.1-.1-.2 0-.2.1-.2.2v1.4c0 .2.1.2.2.2.4.2.7.2 1 .2zm0-4.6h-.9c-.2 0-.2.1-.2.2v1.3c0 .2.1.2.2.2h1.3c.2 0 .4 0 .6-.1.4-.1.7-.4.7-.7 0-.5-.1-.7-.6-.9-.1-.1-.3-.1-.5-.1-.1.1-.4.1-.6.1zM70.1 27.8h-4.5c-.4 0-.5-.1-.5-.5v-1.2c0-.3.1-.4.4-.4H74.8c.2 0 .3.1.3.3v1.4c0 .2-.1.3-.4.3h-2.2c-.8.1-1.6.1-2.4.1zM52.8 35.4c.2-.2.3-.4.5-.5.2-.2.3-.4.5-.6.1-.1.2-.2.4-.2h1.6c.1 0 .2.1.3.1 0 .1 0 .2-.1.3-.7.8-1.4 1.6-2 2.4-.1.2-.2.3 0 .5.1.1.2.3.3.5.1.2.4.3.6.3h1c.3 0 .5.1.5.5v.8c0 .2-.1.4-.4.4h-1.9c-.9 0-1.4-.5-1.8-1.2-.7-1.3-1.5-2.6-2.2-3.9 0-.1-.1-.1-.1-.2-.1-.2 0-.3.2-.3H52c.1 0 .3.1.4.2l.6.9c-.3-.2-.2-.1-.2 0zM65.2 48.9v-.3-3.7c0-.2.1-.4.3-.5.2-.1.4-.1.6.1.2.1.2.3.2.5v5.3c0 .4-.1.6-.4.7-.3.1-.6 0-.8-.3-.7-.9-1.3-1.7-2-2.6l-1.2-1.5c-.1-.1-.1-.1-.2-.3v4.1c0 .4-.3.7-.6.6-.3 0-.5-.2-.5-.6v-3.1V45c0-.3.1-.5.3-.6.3-.1.6-.1.8.2l.9 1.2c.8 1 1.5 2 2.3 3 .2-.1.2 0 .3.1zM32.2 45.7l-.6 1.2-1.8 3.6c-.1.2-.3.3-.5.3h-.7c-.3 0-.3-.1-.2-.4l1.2-2.4c.6-1.2 1.2-2.3 1.8-3.5.1-.2.3-.3.5-.3h.7c.2 0 .3.1.4.3l1.8 3.6 1.2 2.4c.1.3.1.4-.2.4H35c-.2 0-.3-.1-.4-.2-.8-1.5-1.5-3.1-2.3-4.6.1-.2 0-.2-.1-.4zM69.2 47.6c.1-.1.2-.1.2-.2 1-1 1.9-2 2.9-2.9.1-.1.2-.2.3-.2.3-.1.5 0 .6.2.1.2.1.5-.1.6-.6.6-1.3 1.2-1.9 1.9-.1.1-.2.2 0 .4.7.9 1.4 1.7 2.1 2.6.2.3.2.7 0 .8-.3.2-.7.2-.9-.1-.6-.8-1.3-1.6-1.9-2.5-.2-.3-.2-.3-.4 0-.3.2-.5.5-.8.7-.1.1-.1.2-.1.3v1.2c0 .3-.2.6-.5.6s-.6-.1-.6-.5v-.3V45c0-.3.1-.6.4-.7.4-.1.7.1.7.5v2.8zM56.1 49.3h-1.4c-.2 0-.3.1-.3.2-.1.4-.3.7-.5 1.1-.1.3-.4.4-.6.3-.2 0-.4-.2-.4-.5 0-.1 0-.2.1-.3.7-1.7 1.5-3.3 2.2-5 .1-.2.1-.3.2-.5.1-.3.4-.5.7-.4.3 0 .6.2.7.5.6 1.2 1.1 2.5 1.7 3.7.3.6.5 1.1.8 1.7.1.3.1.6-.2.8-.3.1-.6 0-.8-.3-.2-.4-.3-.7-.5-1.1-.1-.1-.1-.2-.3-.2h-1.4zm1.2-1c-.4-.9-.8-1.7-1.1-2.6h-.1c-.4.8-.7 1.7-1.1 2.6h2.3zM42.3 26.7H44.9c.4 0 .5.1.5.5v.9c0 .3-.1.4-.4.4h-3.6c-.2 0-.3.1-.4.2-.4.6-.2.6-1 .6h-1.4c-.3 0-.4-.1-.2-.4l1.5-2.7.3-.6c.1-.1.2-.2.4-.2h1.9c.3 0 .4.1.2.4-.1.4-.2.6-.4.9zM3.2 28.9H4c.3 0 .6.1.7.4.6 1.3 1.3 2.6 2 3.8.2.3.1.4-.2.4h-2c-.2 0-.4-.1-.5-.3-.7-1.3-1.3-2.6-2-3.9 0-.1-.1-.1-.1-.2-.1-.2 0-.3.2-.3.4.1.7.1 1.1.1zM12.6 33.6h-.9c-.3 0-.4-.1-.2-.4.4-.9.9-1.8 1.4-2.6.2-.4.5-.9.7-1.3.1-.2.3-.3.5-.3h2.1c.2 0 .3.1.2.3-.2.4-.4.8-.6 1.1-.5 1-1 1.9-1.5 2.9-.1.2-.2.3-.5.3h-1.2zM59.3 29.7h-1.1c-.1 0-.2-.1-.3-.1 0-.1 0-.2.1-.2.9-1.2 1.9-2.3 2.8-3.5.1-.2.3-.2.5-.2h2.1c.1 0 .2 0 .2.1s0 .2-.1.2c-.9 1.2-1.9 2.4-2.9 3.6-.1.1-.3.2-.4.2-.2-.1-.6-.1-.9-.1zM9.3 47.5v-3c0-.2.1-.3.3-.3h.8c.2 0 .3.1.3.3v6c0 .2-.1.3-.3.3h-.9c-.2 0-.3-.1-.3-.3.1-.9.1-2 .1-3z"/><path class="st0" d="M33.2 49.9v.7c0 .2-.1.3-.2.3h-1.5c-.2 0-.2-.1-.2-.2v-1.5c0-.2.1-.2.2-.2h1.6c.1 0 .2.1.2.2-.1.2-.1.4-.1.7z"/></svg>