<svg version="1.1" id="图层_1" xmlns="http://www.w3.org/2000/svg" x="0" y="0" viewBox="0 0 76 76" xml:space="preserve"><style>.st0{fill:#1d2088}</style><path class="st0" d="M55.7 27.5c2-.6 4-.8 6-1.3-3.2-6.7-11.8-10.1-19.4-7.7-5.9 1.9-9.4 6.7-9.5 13.2-.1 9.7-4.4 15.6-12.9 17.4-2 .4-4.1.5-6.3.7.6 2.5 2 4.6 4.2 6.3 8.9 6.7 21.4 2.8 24.6-7.8.8-2.6.9-5.4 1.3-8.1 1.2-6.9 5.7-10.7 12-12.7z"/><path class="st0" d="M20.1 28.6c2.9-1.3 6.3-1.7 9.5-2.5-2.7-6.5-11-10.4-18.4-8.4-6.5 1.8-10 6.1-10.4 14-.4 6.8 0 13.7-.5 20.5C0 57 1 60.7 5.2 63.5c1.9 1.3 3.5 3.2 5.2 4.8.4.3.8.6 1.5 1.1v-2.5c0-8.4-.1-16.8 0-25.2-.1-6 2.7-10.6 8.2-13.1zM72 13.4c-2.1-1.5-3.8-3.5-5.7-5.3-.5-.5-1-.9-1.9-1.6v27.6c0 6.8-4.5 12.7-11.1 14.4-2.2.6-4.6.7-7 1.1 3.4 7.6 12.6 11.3 20.1 8 6.5-2.9 9-8.4 9.1-15.1.2-6.8-.1-13.6.2-20.3.2-3.7-.6-6.5-3.7-8.8z"/></svg>