<svg xmlns="http://www.w3.org/2000/svg" viewBox="0 0 76 76"><path d="M41.2 15.8c-4.4.9-8.9 1.5-13.2 2.7-6.9 1.9-13.1 4.9-16.8 11.6-3.8 6.8-2.6 12.3 3.7 16.8 1.3.9 2.6 1.6 4 2.3 5.2 2.6 10.9 3.3 16.6 3.4 7.7.2 15.4-.1 22.5-3.3 3.9-1.7 7.4-3.9 8.4-8.6.8-3.5-.1-6.6-3.2-8.3-2.7-1.4-5.7-2.5-8.6-3.1-6.2-1.2-12.4-1.6-18.4 1.3-1.8.9-3.5 1.9-5.7 3.2 3.1 1.7 5.6 3.1 8.2 4.5.4.2 1.1-.2 1.6-.4 2.5-1.3 5-2.6 7.6-3.8.6-.3 1.5-.4 2-.2 2.3 1 4.6 2.2 7.2 3.6-1.6.9-2.9 1.7-4.2 2.4-4.3 2.4-8.6 4.8-12.9 7.1-.6.3-1.5.5-2 .3-7.1-3.8-14.2-7.7-21.8-11.9 2.8-2.5 5.2-5.1 8-7.1 8-5.6 17.1-7.2 26.7-6.8 5.5.2 10.8 1.2 15.8 3.6 10.4 4.9 11 14.6 5.9 22.4-2.6 4.1-6.5 6.9-11 8.6-15.4 5.9-31 6.5-46.4-.1-3.4-1.5-6.7-3.8-9.4-6.4C-3.7 40.4.6 29.9 7 24.7c6.9-5.7 15-8.8 24-9.3 3.4-.2 6.8 0 10.2 0v.4z" fill="#114096"/></svg>