<svg xmlns="http://www.w3.org/2000/svg" viewBox="0 0 76 76"><path d="M22.7 26.9c5.2-3 10-5.7 14.9-8.4.4-.2 1.2-.3 1.6-.1 5.2 2.9 10.4 5.8 15.8 8.8-2.4 1.5-4.6 2.9-6.8 4.3 4.1 1.1 8.2 1.8 12 3.3 3.4 1.3 6.9 2.9 9.8 5.1 6.1 4.5 6.4 12.8 1 18-3.8 3.7-8.5 5.7-13.5 6.7-11.5 2.3-23 3.1-34.5.7-8.5-1.8-15.9-5.4-20.8-13-.4-.7-.8-1.3-1.5-2.7 3.9 0 7.2-.1 10.5.1.5 0 1 .8 1.3 1.3 4.5 6.3 10.1 11.1 18 12 9.5 1.1 18.8-.3 27.3-5 4.7-2.6 6.6-6.6 5.5-11.3-.3-1.3-1.1-2.6-2-3.5-4.9-5.3-11.4-7.6-18.4-8.5-2-.3-4.1-.3-6.1-.4-.5 0-1.1-.1-1.5-.3-4.2-2.4-8.3-4.7-12.6-7.1zm8.4.4l6.8 3.4c.2.1.7.1.9 0 2.1-1.2 4.1-2.5 6.5-3.9-2.4-1.3-4.4-2.4-6.4-3.4-.4-.2-1.1-.2-1.4 0-2.1 1.1-4.1 2.5-6.4 3.9z" fill="#222086"/><path d="M75.3 26.6H64.9c-.4 0-1-.3-1.1-.6-2.3-6.8-7.8-9.9-14-11.9-9-2.8-18-2.9-26.9.6-3.7 1.5-6.8 3.8-8.9 7.3-1.9 3.3-1.8 6.5.1 9.8 3.4 5.7 12.4 10.7 18.7 8.9 2.2-.6 4.4-.2 6.5 1 4.1 2.4 8.4 4.5 12.9 6.9-5 2.9-9.7 5.7-14.4 8.4-.3.2-.9.2-1.3 0-5.1-2.9-10.3-5.8-15.7-8.9 2.4-1.5 4.6-2.8 7-4.2-2.9-.6-5.6-1.1-8.1-1.8-4.6-1.3-9-3.1-13-5.9-9.1-6.5-6.3-15.7-.1-20.3 4.7-3.5 10.1-5 15.7-5.8 12.9-1.8 25.6-1 37.9 3.4 5.4 1.9 10.2 4.9 13.4 9.8.5.8.9 1.6 1.4 2.4.2.3.2.5.3.9zm-30 22.1c-2.5-1.3-4.6-2.6-6.8-3.7-.3-.2-.8-.1-1.1 0-2.1 1.2-4.3 2.4-6.6 3.7C33 50 35 51.2 37 52.3c.4.2 1 .2 1.4 0 2.2-1.1 4.4-2.3 6.9-3.6z" fill="#5da573"/></svg>