<svg version="1.1" id="图层_1" xmlns="http://www.w3.org/2000/svg" x="0" y="0" viewBox="0 0 76 76" xml:space="preserve"><style>.st1{fill:#797c8f}</style><path d="M63.5 75.5h-51c-6.6 0-12-5.4-12-12v-51c0-6.6 5.4-12 12-12h51c6.6 0 12 5.4 12 12v51c0 6.6-5.4 12-12 12z" fill="#181c28"/><path class="st1" d="M63.5.5h-6v1h6v-1zm-10 0h-6v1h6v-1zm-10 0h-6v1h6v-1zm-10 0h-6v1h6v-1zm-10 0h-6v1h6v-1zm-10 0h-1-.1-.1-.1c-.8.1-1.6.3-2.3.5h-.1c-1.8.4-2 .5-2.2.5l.4.9c1.4-.6 2.9-.9 4.5-.9h1v-1zM4.3 3.7c-.4.4-.7.8-1.1 1.2 0 0 0 .1-.1.1-1.3 2-1.7 2.8-2 3.7l1 .3C2.6 7.3 3.7 5.7 5 4.5l-.7-.8zm-2.8 8.9h-1v6h1v-6zm0 10h-1v6h1v-6zm0 10h-1v6h1v-6zm0 10h-1v6h1v-6zm0 10h-1v6h1v-6zm0 10h-1V63.9c.2.6.4 1.2.6 1.7l.9-.4c-.7-1.4-1-3-1-4.6v2h.5zm3 8.5l-.7.7c1.4 1.4 3.1 2.5 5 3.1l.3-1c-1.7-.5-3.3-1.5-4.6-2.8zm14.3 3.4h-6v1h6v-1zm10 0h-6v1h6v-1zm10 0h-6v1h6v-1zm10 0h-6v1h6v-1zm10 0h-6v1h6v-1zm9.4-1.1c-1.5.7-3.1 1.1-4.7 1.1h-.7v1H63.8c.4-.1.7-.3 1.1-.4l3.3-1.7zm5.8-6.7c-.5 1.8-1.5 3.4-2.8 4.6l.7.7c1.4-1.4 2.5-3.1 3.1-5.1l-1-.2zm1.5-9.6h-1v6h1v-6zm0-10h-1v6h1v-6zm0-10h-1v6h1v-6zm0-10h-1v6h1v-6zm0-10h-1v6h1v-6zm-1.2-9.9l-.9.4c.7 1.5 1.1 3.1 1.1 4.8v.6h1v-.6-.1-.1-.1-.1c-.3-2.2-.5-3-.8-3.8v-.1c-.3-.6-.4-.7-.4-.9zM66.9 1l-.3 1c1.8.5 3.4 1.5 4.7 2.8L72 4c-.2-.2-.4-.4-.6-.5h-.1c-.5-.4-1.1-.7-1.7-1-2.2-1.4-2.5-1.4-2.7-1.5zM61.6 37.2H38.7V14.3c0-1.1-.9-2-2-2s-2 .9-2 2v22.9H11.8c-1.1 0-2 .9-2 2s.9 2 2 2h22.9v22.9c0 1.1.9 2 2 2s2-.9 2-2V41.2h22.9c1.1 0 2-.9 2-2s-.9-2-2-2z"/></svg>