<svg xmlns="http://www.w3.org/2000/svg" viewBox="0 0 706 160"><linearGradient id="a" gradientUnits="userSpaceOnUse" x1="226.349" y1="-130.782" x2="479.651" y2="290.782"><stop offset="0" stop-color="#ff827f"/><stop offset="1" stop-color="#ff6f6f"/></linearGradient><path d="M694 0H537.9c-.7 5.9-5.8 10.5-11.9 10.5h-1.5c-6.1 0-11.1-4.6-11.9-10.5H12C5.4 0 0 5.4 0 12v136c0 6.6 5.4 12 12 12h500.9c1.3-5.2 6-9.1 11.6-9.1h1.5c5.6 0 10.3 3.9 11.6 9.1H694c6.6 0 12-5.4 12-12V12c0-6.6-5.4-12-12-12zM526.5 147.2h-2v-3.5h2v3.5zm0-7.6h-2v-7.1h2v7.1zm0-11.2h-2v-7.1h2v7.1zm0-11.3h-2V110h2v7.1zm0-11.2h-2v-7.1h2v7.1zm0-11.2h-2v-7.1h2v7.1zm0-11.3h-2v-7.1h2v7.1zm0-11.2h-2v-7.1h2v7.1zm0-11.2h-2v-7.1h2V61zm0-11.2h-2v-7.1h2v7.1zm0-11.3h-2v-7.1h2v7.1zm0-11.2h-2v-7.1h2v7.1zm0-11.2h-2v-3.5h2v3.5z" fill="url(#a)"/></svg>