<svg version="1.1" id="图层_1" xmlns="http://www.w3.org/2000/svg" x="0" y="0" viewBox="0 0 40 40" xml:space="preserve"><style>.st0{fill:#797c8f}</style><path class="st0" d="M38.2 26.7c-.6 0-1.1.5-1.1 1.1V33c0 .6-.5 1.1-1.1 1.1H3.9c-.6 0-1.1-.5-1.1-1.1v-5.4c0-.6-.5-1.1-1.1-1.1s-.9.5-.9 1.1V33c0 1.8 1.4 3.2 3.2 3.2h32.1c1.8 0 3.2-1.4 3.2-3.2v-5.2c0-.6-.5-1.1-1.1-1.1zM36.1 3.9H3.9C2.2 3.9.8 5.3.8 7v5.3c0 .6.5 1.1 1.1 1.1S3 12.9 3 12.3V7c-.1-.5.3-1 .9-1H36c.6 0 1.1.5 1.1 1.1v5.2c0 .6.5 1.1 1.1 1.1s1.1-.5 1.1-1.1V7c0-1.7-1.5-3.1-3.2-3.1z"/><circle class="st0" cx="5.4" cy="19" r="2.6"/><circle class="st0" cx="15.1" cy="19" r="2.6"/><circle class="st0" cx="24.9" cy="19" r="2.6"/><circle class="st0" cx="34.6" cy="19" r="2.6"/></svg>