<svg version="1.1" id="图层_1" xmlns="http://www.w3.org/2000/svg" x="0" y="0" viewBox="0 0 50 50" xml:space="preserve"><style>.st0{fill:#797c8f}</style><path class="st0" d="M11.1 18.7l2.3-1.4v8.3l-2.3-1.3v-5.6zm2.7-1.4l12.1-1.9v12.2l-12.1-1.9v-8.4z"/><path class="st0" d="M21.7 37.2c-1.4.4-2.7-.3-3-1.5l-3-11c-.3-1.2.5-2.5 1.9-2.8 1.4-.4 2.7.3 3 1.5l3 11c.3 1.2-.5 2.5-1.9 2.8zm4.7-23V30c0 1.5 5.8 1.9 5.8 1.2V13c0-.7-5.8-.3-5.8 1.2zm10.9-.9c.2.1.2.4.1.6L34.9 17c-.1.2-.4.2-.6.1l-.5-.4c-.2-.1-.2-.4-.1-.6l2.5-3.1c.1-.2.4-.2.6-.1l.5.4zm0 14.7c.2-.1.2-.4.1-.6l-2.5-3.1c-.1-.2-.4-.2-.6-.1l-.5.4c-.2.1-.2.4-.1.6l2.5 3.1c.1.2.4.2.6.1l.5-.4zm1.6-6.9c0 .1 0 .2-.1.3-.1.1-.2.1-.3.1h-4c-.1 0-.2 0-.3-.1s-.1-.2-.1-.3v-.6c0-.1 0-.2.1-.3.1-.1.2-.1.3-.1h4c.1 0 .2 0 .3.1s.1.2.1.3v.6z"/></svg>