<svg xmlns="http://www.w3.org/2000/svg" viewBox="0 0 58 58"><path d="M54.5 13.9H44.1c-3.4 0-4.7-7-8.1-7H20.9c-2.3 0-3.5 7-7 7H3.5c-1.9 0-3.5 1.6-3.5 3.5v30.2C0 49.5 1.6 51 3.5 51h51c1.9 0 3.5-1.6 3.5-3.5V17.4c0-1.9-1.6-3.5-3.5-3.5zM29 45.2c-7.7 0-13.9-6.2-13.9-13.9S21.3 17.4 29 17.4s13.9 6.2 13.9 13.9S36.7 45.2 29 45.2zm16.8-24.3c-1 0-1.7-.8-1.7-1.7 0-1 .8-1.7 1.7-1.7 1 0 1.7.8 1.7 1.7.1.9-.7 1.7-1.7 1.7zM11.6 10.4c0-.6-.5-1.2-1.2-1.2H7c-.6 0-1.2.5-1.2 1.2v1.2h5.8v-1.2zM29 20.9c-5.8 0-10.4 4.7-10.4 10.4 0 5.8 4.7 10.4 10.4 10.4 5.8 0 10.4-4.7 10.4-10.4 0-5.8-4.6-10.4-10.4-10.4zm0 0" fill="#333"/></svg>