<svg version="1.1" id="图层_1" xmlns="http://www.w3.org/2000/svg" x="0" y="0" viewBox="0 0 54 54" xml:space="preserve"><style>.st0{fill:#999}</style><path class="st0" d="M27 .2C12.2.2.2 12.2.2 27s12 26.8 26.8 26.8 26.8-12 26.8-26.8S41.8.2 27 .2zm0 51.6C13.3 51.8 2.2 40.7 2.2 27S13.3 2.2 27 2.2 51.8 13.3 51.8 27 40.7 51.8 27 51.8z"/><path class="st0" d="M39.8 14.2c-.4-.4-1-.4-1.4 0L27 25.6 15.6 14.2c-.4-.4-1-.4-1.4 0s-.4 1 0 1.4L25.6 27 14.2 38.4c-.4.4-.4 1 0 1.4.2.2.5.3.7.3s.5-.1.7-.3L27 28.4l11.4 11.4c.2.2.5.3.7.3s.5-.1.7-.3c.4-.4.4-1 0-1.4L28.4 27l11.4-11.4c.4-.4.4-1 0-1.4z"/></svg>