<svg version="1.1" id="图层_1" xmlns="http://www.w3.org/2000/svg" x="0" y="0" viewBox="0 0 40 40" xml:space="preserve"><style>.st0{fill:#666}</style><path class="st0" d="M6 13c.6.1 1.2-.2 1.3-.8 1.4-5.6 6.5-9.6 12.3-9.6 5.8 0 10.9 3.9 12.3 9.6.1.5.6.8 1.1.8h.3c.6-.1.9-.7.8-1.3-.8-3.1-2.6-6-5.2-8-1.3-1-2.7-1.8-4.2-2.3-1.6-.6-3.3-.8-4.9-.8-1.7 0-3.4.3-4.9.8-1.5.5-3 1.3-4.2 2.3-2.6 2-4.4 4.9-5.2 8-.4.5-.1 1.1.5 1.3zM33.7 15H6.3C4.5 15 3 16.4 3 18.2v18.1c0 1.8 1.5 3.3 3.3 3.3h27.4c1.8 0 3.3-1.5 3.3-3.3V18.2c0-1.8-1.5-3.2-3.3-3.2zm1.1 21.3c0 .6-.5 1.1-1.1 1.1H6.3c-.6 0-1.1-.5-1.1-1.1V18.2c0-.6.5-1.1 1.1-1.1h27.4c.6 0 1.1.5 1.1 1.1v18.1z"/><path class="st0" d="M20 21.8c-1.7 0-3.1 1.4-3.1 3.1 0 1.3.7 2.4 1.8 2.9v3.6c0 .7.6 1.3 1.3 1.3.7 0 1.3-.6 1.3-1.3v-3.5-.1c1.1-.5 1.8-1.6 1.8-2.9 0-1.7-1.4-3.1-3.1-3.1z"/></svg>