<svg xmlns="http://www.w3.org/2000/svg" viewBox="0 0 40 40"><path d="M39.7 11.6c.3-.5.1-1.2-.4-1.4-.5-.3-1.2-.1-1.4.4-3.7 6.5-10.5 10.6-17.9 10.6-7.4 0-14.2-4-17.8-10.5-.3-.5-.9-.7-1.4-.4-.5.3-.7.9-.4 1.4 1.2 2.1 2.6 4 4.3 5.6l-3.5 3.2c-.4.4-.5 1.1-.1 1.5.2.2.5.4.8.4.3 0 .5-.1.7-.3l3.7-3.4c1.6 1.2 3.3 2.2 5.1 2.9l-2.1 4.8c-.2.5 0 1.2.5 1.4.1.1.3.1.4.1.4 0 .8-.2 1-.6l2.2-5c1.8.6 3.7.9 5.6 1v5.6c0 .6.5 1.1 1.1 1.1.6 0 1.1-.5 1.1-1.1v-5.6c1.9-.1 3.8-.4 5.6-1l2.2 5c.2.4.6.6 1 .6.1 0 .3 0 .4-.1.5-.2.8-.9.5-1.4l-2.2-4.8c1.8-.8 3.5-1.8 5.1-3l3.6 3.2c.2.2.5.3.7.3.3 0 .6-.1.8-.4.4-.4.4-1.1-.1-1.5l-3.4-3.1c1.6-1.5 3.1-3.4 4.3-5.5z" fill="#666"/></svg>