<svg version="1.1" id="图层_1" xmlns="http://www.w3.org/2000/svg" x="0" y="0" viewBox="0 0 40 40" xml:space="preserve"><style>.st0{fill:#666}</style><path class="st0" d="M39.3 19.4C39 18.9 30.6 7.3 20 7.3S1 18.9.7 19.4l-.5.6.4.6c.4.5 8.8 12.1 19.4 12.1 10.6 0 19-11.6 19.3-12.1l.4-.6-.4-.6zM20 30.5c-8.2 0-15.3-8.2-17.1-10.5C4.7 17.6 11.8 9.5 20 9.5c8.2 0 15.3 8.2 17.1 10.5-1.8 2.4-8.9 10.5-17.1 10.5z"/><path class="st0" d="M20 14.1c-3.2 0-5.9 2.6-5.9 5.9 0 3.2 2.6 5.9 5.9 5.9 3.2 0 5.9-2.6 5.9-5.9 0-3.2-2.7-5.9-5.9-5.9zm0 9.6c-2 0-3.7-1.7-3.7-3.7s1.7-3.7 3.7-3.7 3.7 1.7 3.7 3.7-1.7 3.7-3.7 3.7z"/></svg>