<svg version="1.1" id="图层_1" xmlns="http://www.w3.org/2000/svg" x="0" y="0" viewBox="0 0 160 160" xml:space="preserve"><style>.st2{fill:#fff}</style><path d="M139.9 159.9H20.1c-11 0-20-9-20-20V20.1c0-11 9-20 20-20H140c11 0 20 9 20 20V140c-.1 10.9-9.1 19.9-20.1 19.9z" fill="#ff3838"/><path d="M128 128H52c-11 0-20-9-20-20V32h76c11 0 20 9 20 20v76z" fill="#e72c2c"/><path class="st2" d="M127.9 54.4H32.1V32.1h75.3c11.4 0 20.6 9.2 20.6 20.6v1.7z"/><path d="M127.9 88.6H64.6V66.4h42.8c11.4 0 20.6 9.2 20.6 20.6v1.6z" fill="#ffd200"/><path class="st2" d="M127.9 128H64.6v-22.3h42.8c11.4 0 20.6 9.2 20.6 20.6v1.7zM54.3 128V65.8H32.1v41.7c0 11.4 9.2 20.6 20.6 20.6h1.6z"/></svg>