<svg xmlns="http://www.w3.org/2000/svg" viewBox="0 0 48 48"><path d="M21.8 2C11.5 3 3.2 11.1 2 21.3c-.7 6.2 1.1 12 4.6 16.4l-1.3 6.5c-.1.7.5 1.3 1.2 1l6.2-2.1c4 2.4 8.9 3.6 14.1 2.9C37 44.7 45.1 36.4 46 26.1 47.3 12.2 35.7.6 21.8 2zm15.5 27c0 .6-.5 1.1-1.1 1.1h-4.1c-.6 0-1.1-.5-1.1-1.1v-6c0-.6.4-1 1-1.1-.7-3.4-3.7-6-7.3-6-3.6 0-6.6 2.6-7.3 6 .5.1 1 .5 1 1.1v6c0 .6-.5 1.1-1.1 1.1h-.7c.2 2.5 2 4.5 4.4 4.8.1-.3.4-.6.8-.6h3.4c.5 0 .9.4.9.9v1.9c0 .5-.4.9-.9.9h-3.4c-.4 0-.7-.3-.8-.7-3.7-.4-6.7-3.5-6.8-7.2h-1c-.6 0-1.1-.5-1.1-1.1v-6c0-.6.5-1.1 1.1-1.1h.1c.8-5.7 5.6-10.1 11.5-10.1s10.8 4.4 11.5 10.1h.1c.6 0 1.1.5 1.1 1.1l-.2 6zm0 0" fill="#333"/></svg>