<svg xmlns="http://www.w3.org/2000/svg" viewBox="0 0 48 48"><path d="M29.4 17.8h13.2v25.7c0 .6-.2 1.2-.7 1.6-.5.5-1 .7-1.7.7H7.7c-.6 0-1.2-.2-1.6-.7-.5-.5-.7-1-.7-1.6v-39c0-.6.2-1.2.7-1.6.5-.5 1-.7 1.6-.7h19.5v13.2c0 .6.2 1.2.7 1.6.3.5.9.8 1.5.8zm3.9 5.4v-1.6c0-.2-.1-.4-.2-.6-.1-.1-.3-.2-.6-.2H15.4c-.2 0-.4.1-.6.2-.1.1-.2.3-.2.6v1.6c0 .2.1.4.2.6.1.1.3.2.6.2h17.1c.2 0 .4-.1.6-.2.2-.2.2-.3.2-.6zm0 6.2v-1.6c0-.2-.1-.4-.2-.6-.1-.1-.3-.2-.6-.2H15.4c-.2 0-.4.1-.6.2-.1.1-.2.3-.2.6v1.6c0 .2.1.4.2.6.1.1.3.2.6.2h17.1c.2 0 .4-.1.6-.2.2-.1.2-.3.2-.6zm0 6.3v-1.6c0-.2-.1-.4-.2-.6-.1-.1-.3-.2-.6-.2H15.4c-.2 0-.4.1-.6.2-.1.1-.2.3-.2.6v1.6c0 .2.1.4.2.6.1.1.3.2.6.2h17.1c.2 0 .4-.1.6-.2.2-.2.2-.4.2-.6zM41 13.8c.2.2.5.5.7.9H30.2V3.2c.4.2.6.5.9.7l9.9 9.9zm0 0" fill="#333"/></svg>