<svg xmlns="http://www.w3.org/2000/svg" viewBox="0 0 48 48"><path d="M9.7 14.8c0 3.9 2.1 7.6 5.5 9.5 3.4 2 7.6 2 11 0 3.4-2 5.5-5.6 5.5-9.5 0-6.1-4.9-11-11-11s-11 5-11 11zM29.4 36c0-3.4 1.7-6.5 4.3-8.4-1.3-1.1-2.8-2-4.4-2.7-2.4 2-5.3 3.1-8.6 3.1s-6.2-1.2-8.5-3.1C5.6 27.9.8 34.2.1 41.8h31.1c-1.1-1.7-1.8-3.7-1.8-5.8zm10.4-8.2c-4.5 0-8.2 3.7-8.2 8.2 0 4.5 3.7 8.2 8.2 8.2 4.5 0 8.2-3.7 8.2-8.2-.1-4.5-3.7-8.2-8.2-8.2zm4.2 9.4h-3v3c0 .6-.5 1.2-1.1 1.2-.7.1-1.3-.5-1.3-1.2v-3h-3c-.6 0-1.2-.5-1.2-1.1-.1-.7.5-1.3 1.2-1.3h3v-3c0-.6.5-1.2 1.1-1.2.7-.1 1.3.5 1.3 1.2v3h3c.7 0 1.3.6 1.2 1.3-.1.6-.6 1.1-1.2 1.1zm0 0"/></svg>