<svg xmlns="http://www.w3.org/2000/svg" viewBox="0 0 48 48"><path d="M35.8 10.6c-3.8 2.1-7.7 2.8-11.2 2.8-6.7 0-11.9-2.6-12.2-2.8-.7-.4-1-1.2-.6-2 .4-.7 1.2-1 2-.6.1.1 10.8 5.4 20.6 0 .7-.4 1.6-.1 2 .6.4.7.1 1.6-.6 2zm-5.1 21.5c.8 0 1.5.7 1.5 1.5s-.7 1.5-1.5 1.5h-5.1v3.8c0 .8-.7 1.5-1.5 1.5s-1.5-.7-1.5-1.5V35h-5.1c-.8 0-1.5-.7-1.5-1.5s.7-1.5 1.5-1.5h5.1v-2.5h-5.1c-.8 0-1.5-.7-1.5-1.5s.7-1.5 1.5-1.5h3.8l-4-6.1c-.4-.7-.3-1.6.4-2 .7-.4 1.6-.3 2 .4l4.2 6.4 4.2-6.4c.4-.7 1.4-.9 2-.4.7.4.9 1.4.4 2l-4 6.1h4c.8 0 1.5.7 1.5 1.5s-.7 1.5-1.5 1.5h-5.1V32h5.3zM34.2.7H13.8C8.7.7 4.5 4.9 4.5 10v28.1c0 5.1 4.2 9.3 9.3 9.3h20.3c5.1 0 9.3-4.2 9.3-9.3V9.9c.1-5.1-4.1-9.2-9.2-9.2zm0 0" fill="#333"/></svg>