<svg version="1.1" id="图层_1" xmlns="http://www.w3.org/2000/svg" x="0" y="0" viewBox="0 0 48 48" xml:space="preserve"><style>.st0{fill:#333}</style><path class="st0" d="M9.3 28.9c.5.4 1.1.6 1.7.6h.3c.7-.1 1.4-.5 1.8-1.1l5.6-7.4 5.5 4.7c.6.5 1.3.7 2 .6.7-.1 1.4-.4 1.9-1L40.9 9c.1-.1.1-.3.2-.4L43.3 6c1.2-1.4.7-2.3-1.1-2L31.7 5.6c-1.8.3-2.2 1.6-.8 2.8l2.1 1.9-7.3 9.4-5.7-4.6c-.6-.5-1.3-.7-2-.6-.7.1-1.4.5-1.9 1.1L10.5 23l-2.7-2.2c-1.1-1-2.8-.8-3.8.3-.9 1.2-.7 2.9.4 3.9l4.9 3.9z"/><path class="st0" d="M41 16.6L28.6 31.7c-.6.7-2-.3-2.7-.9l-5-4.4c-.7-.6-1.7.4-2.3 1.1l-5.8 7.1c-.6.7-1.6-.1-2.3-.7l-5.1-4c-.9-.9-1.8 0-1.8 1.8v10.8c0 .9.7 1.6 1.6 1.6h37.5c.9 0 1.6-.7 1.6-1.6v-25c.2-2.4-1.6-2.9-3.3-.9z"/></svg>