<?xml version="1.0" encoding="utf-8"?>
<!-- Generator: Adobe Illustrator 21.0.0, SVG Export Plug-In . SVG Version: 6.00 Build 0)  -->
<svg version="1.1" id="图层_1" xmlns="http://www.w3.org/2000/svg" xmlns:xlink="http://www.w3.org/1999/xlink" x="0px" y="0px"
	 viewBox="0 0 36 36" style="enable-background:new 0 0 36 36;" xml:space="preserve">
<style type="text/css">
	.st0{fill:#666666;}
</style>
<g>
	<g>
		<path class="st0" d="M31,33.3H5c-1.2,0-2.2-1-2.2-2.2V14.9h30.5V31C33.3,32.3,32.3,33.3,31,33.3 M5,6.4h2.2v2.2
			c0,0.7,0.6,1.3,1.3,1.3C9.4,10,10,9.4,10,8.7V6.4h16.1v2.2c0,0.5,0.3,0.9,0.7,1.2c0.4,0.2,0.9,0.2,1.3,0s0.7-0.7,0.7-1.2V6.4H31
			c1.2,0,2.2,1,2.2,2.2v3.6H2.8V8.7C2.8,7.4,3.8,6.4,5,6.4 M31,3.7h-2.2V1.5c0-0.5-0.3-0.9-0.7-1.2c-0.4-0.2-0.9-0.2-1.3,0
			S26.1,1,26.1,1.5v2.2H10V1.5C10,1,9.7,0.6,9.3,0.3C8.9,0.1,8.4,0.1,8,0.3C7.5,0.6,7.3,1,7.3,1.5v2.2H5c-2.7,0-4.9,2.2-4.9,4.9V31
			c0,2.8,2.2,5,4.9,5h26c2.7,0,4.9-2.2,4.9-4.9V8.7C36,5.9,33.7,3.7,31,3.7 M7.3,20.7h1.8V19H7.3V20.7z M5.5,22.5h5.4v-5.4H5.5V22.5
			z M27,20.7h1.8V19H27V20.7z M25.2,22.5h5.4v-5.4h-5.4V22.5z M17.1,20.7h1.8V19h-1.8V20.7z M15.3,22.5h5.4v-5.4h-5.4
			C15.3,17.1,15.3,22.5,15.3,22.5z M7.3,28.8h1.8V27H7.3V28.8z M5.5,30.6h5.4v-5.4H5.5V30.6z M27,28.8h1.8V27H27V28.8z M25.2,30.6
			h5.4v-5.4h-5.4V30.6z M17.1,28.8h1.8V27h-1.8V28.8z M15.3,30.6h5.4v-5.4h-5.4C15.3,25.2,15.3,30.6,15.3,30.6z"/>
	</g>
</g>
</svg>
