<svg xmlns="http://www.w3.org/2000/svg" viewBox="0 0 36 36"><path d="M31 33.3H5c-1.2 0-2.2-1-2.2-2.2V14.9h30.5V31c0 1.3-1 2.3-2.3 2.3M5 6.4h2.2v2.2c0 .7.6 1.3 1.3 1.3.9.1 1.5-.5 1.5-1.2V6.4h16.1v2.2c0 .5.3.9.7 1.2.4.2.9.2 1.3 0s.7-.7.7-1.2V6.4H31c1.2 0 2.2 1 2.2 2.2v3.6H2.8V8.7c0-1.3 1-2.3 2.2-2.3m26-2.7h-2.2V1.5c0-.5-.3-.9-.7-1.2-.4-.2-.9-.2-1.3 0s-.7.7-.7 1.2v2.2H10V1.5C10 1 9.7.6 9.3.3 8.9.1 8.4.1 8 .3c-.5.3-.7.7-.7 1.2v2.2H5C2.3 3.7.1 5.9.1 8.6V31c0 2.8 2.2 5 4.9 5h26c2.7 0 4.9-2.2 4.9-4.9V8.7c.1-2.8-2.2-5-4.9-5m-23.7 17h1.8V19H7.3v1.7zm-1.8 1.8h5.4v-5.4H5.5v5.4zM27 20.7h1.8V19H27v1.7zm-1.8 1.8h5.4v-5.4h-5.4v5.4zm-8.1-1.8h1.8V19h-1.8v1.7zm-1.8 1.8h5.4v-5.4h-5.4v5.4zm-8 6.3h1.8V27H7.3v1.8zm-1.8 1.8h5.4v-5.4H5.5v5.4zM27 28.8h1.8V27H27v1.8zm-1.8 1.8h5.4v-5.4h-5.4v5.4zm-8.1-1.8h1.8V27h-1.8v1.8zm-1.8 1.8h5.4v-5.4h-5.4v5.4zm0 0" fill="#333"/></svg>