<svg version="1.1" id="图层_1" xmlns="http://www.w3.org/2000/svg" x="0" y="0" viewBox="0 0 48 48" xml:space="preserve"><style>.st0{fill:#ff6738}</style><path class="st0" d="M24 1.1C11.4 1.1 1.1 11.4 1.1 24S11.4 46.9 24 46.9c1.9 0 3.8-.2 5.6-.7 1.1-.3 1.7-1.4 1.4-2.4-.3-1.1-1.4-1.7-2.4-1.4-1.5.4-3.1.6-4.7.6-10.3-.1-18.8-8.6-18.8-19S13.6 5.1 24 5.1c10.4 0 18.9 8.5 18.9 18.9 0 2.2-.4 4.4-1.1 6.4-.4 1 .2 2.2 1.2 2.6 1 .4 2.2-.2 2.6-1.2.9-2.5 1.4-5.1 1.4-7.8-.1-12.6-10.4-22.9-23-22.9z"/><path class="st0" d="M42.6 36.9h-3.4v-3.4c0-1.1-.9-2-2-2s-2 .9-2 2v3.4h-3.4c-1.1 0-2 .9-2 2s.9 2 2 2h3.4v3.4c0 1.1.9 2 2 2s2-.9 2-2v-3.4h3.4c1.1 0 2-.9 2-2s-.9-2-2-2zM24 34.9c1.1 0 2-.9 2-2V31h5.2c1.1 0 2-.9 2-2s-.9-2-2-2H26v-1.2h5.2c1.1 0 2-.9 2-2s-.9-2-2-2h-4.9l5.3-5.3c.8-.8.8-2 0-2.8s-2-.8-2.8 0L24 18.5l-4.8-4.8c-.8-.8-2-.8-2.8 0-.8.8-.8 2 0 2.8l5.3 5.3h-4.9c-1.1 0-2 .9-2 2s.9 2 2 2H22V27h-5.2c-1.1 0-2 .9-2 2s.9 2 2 2H22v1.9c0 1.1.9 2 2 2z"/></svg>