<svg version="1.1" id="图层_1" xmlns="http://www.w3.org/2000/svg" x="0" y="0" viewBox="0 0 48 48" xml:space="preserve"><style>.st0{fill:#ffb400}</style><path class="st0" d="M24 .8C11.2.8.8 11.2.8 24S11.2 47.2 24 47.2 47.2 36.8 47.2 24 36.8.8 24 .8zm0 42.4C13.4 43.2 4.8 34.6 4.8 24S13.4 4.8 24 4.8 43.2 13.4 43.2 24 34.6 43.2 24 43.2z"/><path class="st0" d="M21.3 25.8l-2.1 2.1V14.1c0-1.1-.9-2-2-2s-2 .9-2 2v13.8l-2.1-2.1c-.8-.8-2-.8-2.8 0-.8.8-.8 2 0 2.8l5.1 5.1c.5.5 1.1.8 1.8.8s1.4-.3 1.8-.8l5.1-5.1c.8-.8.8-2 0-2.8-.7-.7-2-.7-2.8 0zM37.7 18l-5.1-5.1c-1-1-2.7-1-3.7 0l-5 5.1c-.8.8-.8 2 0 2.8.8.8 2 .8 2.8 0l2.1-2.1v13.8c0 1.1.9 2 2 2s2-.9 2-2V18.7l2.1 2.1c.4.4.9.6 1.4.6s1-.2 1.4-.6c.8-.8.8-2 0-2.8z"/></svg>