<svg version="1.1" id="图层_1" xmlns="http://www.w3.org/2000/svg" x="0" y="0" viewBox="0 0 48 48" xml:space="preserve"><style>.st0{fill:#409de5}</style><path class="st0" d="M45.3 12.2c1.2 0 2.1-.9 2.1-2.1V4.9c0-2.4-1.9-4.3-4.3-4.3H4.9C2.5.6.6 2.5.6 4.9V43c0 2.4 1.9 4.3 4.3 4.3H43c2.4 0 4.3-1.9 4.3-4.3V20c0-1.2-.9-2.1-2.1-2.1-1.2 0-2.1.9-2.1 2.1v23c0 .1-.1.1-.1.1H4.9c-.1 0-.1-.1-.1-.1V4.9c0-.1.1-.1.1-.1H43c.1 0 .1.1.1.1v5.2c.1 1.2 1.1 2.1 2.2 2.1z"/><path class="st0" d="M39 16.5l-12-6.4c-.7-.4-1.6-.6-2.5-.6-.9 0-1.8.2-2.5.6l-11.9 6.3c-1 .6-1.6 1.6-1.6 2.7s.6 2.1 1.7 2.6L22.1 28c.7.4 1.6.6 2.5.6.9 0 1.8-.2 2.5-.6L39 21.7c1.1-.6 1.7-1.6 1.7-2.6 0-1.1-.6-2.1-1.7-2.6zm-13.9 7.9s-.2.1-.5.1-.5-.1-.5-.1l-9.9-5.3 9.9-5.3s.2-.1.5-.1.5.1.5.1l9.9 5.3-9.9 5.3z"/><path class="st0" d="M39.8 25.1c-.3-.7-1-1.1-1.8-1.1-.3 0-.7.1-1 .2l-11.9 6.3s-.2.1-.5.1-.5-.1-.5-.1l-11.9-6.3c-.3-.2-.6-.2-1-.2-.8 0-1.5.4-1.8 1.1-.5 1-.2 2.3.9 2.8l11.9 6.3c.7.4 1.6.6 2.5.6.9 0 1.8-.2 2.5-.6L39 27.9c1-.5 1.4-1.8.8-2.8z"/><path class="st0" d="M38 30.2c-.3 0-.7.1-1 .2l-11.9 6.3s-.2.1-.5.1-.5-.1-.5-.1l-11.9-6.3c-.3-.2-.6-.2-1-.2-.8 0-1.5.4-1.8 1.1-.3.5-.3 1.1-.2 1.6.2.5.5 1 1 1.2l11.9 6.3c.7.4 1.6.6 2.5.6.9 0 1.8-.2 2.5-.6L39 34.1c1-.5 1.4-1.8.9-2.8-.4-.7-1.1-1.1-1.9-1.1z"/></svg>