<svg xmlns="http://www.w3.org/2000/svg" viewBox="0 0 40 40"><path d="M34.7 6.4H5.3c-2.1 0-3.8 1.7-3.8 3.8v9.4l10.3-8.1c.5-.4 1.2-.3 1.6.1l7.4 6.2 8.8-6.9-3.1-.7c-.3-.1-.5-.2-.6-.4s-.2-.5-.1-.7c.1-.3.2-.5.4-.6.2-.1.5-.2.7-.1l5.8 1.2c.5.1.9.6.8 1.2l-1.2 5.8c-.1.3-.2.5-.4.6-.2.1-.5.2-.7.1-.3-.1-.5-.2-.6-.4-.1-.2-.2-.5-.1-.7l.7-3.3-9.3 7.4c-.3.2-.7.3-1 .2-.3 0-.6-.1-.8-.3L12.5 14 2.1 22.2c-.2.1-.4.2-.6.2v7.4c0 2.1 1.7 3.8 3.8 3.8h29.4c2.1 0 3.8-1.7 3.8-3.8V10.1c0-2-1.7-3.7-3.8-3.7zm-26 25.1c0 .5-.4.8-.8.8-.5 0-.8-.4-.8-.8v-6.6c-.1-.5.3-.9.7-.9.5 0 .8.4.8.8l.1 6.7zm4.2 0c0 .5-.4.8-.8.8-.5 0-.8-.4-.8-.8V20.7c0-.5.4-.8.8-.8.5 0 .8.4.8.8v10.8zm3.9 0c0 .5-.4.8-.8.8-.5 0-.8-.4-.8-.8v-6.6c0-.5.4-.8.8-.8.5 0 .8.4.8.8v6.6zm17.2-.1c0 .3-.1.5-.2.6-.1.1-.2.2-.4.2-.1 0-.3.1-.5.1h-7.2c-.4 0-.6-.1-.8-.4-.1-.1-.2-.3-.2-.6v-3c0-.2.1-.3.2-.5.1-.1.3-.2.5-.2s.3.1.5.2c.1.1.2.3.2.4v2.5l.1.1H28.5c.1 0 .1 0 .1-.1v-3.3c0-.1 0-.2-.1-.2H26c-.3 0-.6-.1-.8-.4-.1-.1-.1-.2-.2-.4v-2.8c0-.2.1-.3.2-.4s.3-.2.5-.2.3.1.5.2c.1.1.2.3.2.4v2c0 .1 0 .1.1.2 0 .1.1.1.2.1h1.8c.1 0 .2 0 .2-.1V23c0-.2.1-.3.2-.4s.3-.1.5-.1.3 0 .5.1c.1.1.2.2.2.4v2.5c0 .1 0 .2.1.2l.1.1H32c.1 0 .2 0 .3-.1.1 0 .1-.1.1-.2v-1.9c0-.2.1-.3.2-.4.1-.1.3-.2.5-.2s.4.1.5.2.2.3.2.4v2.8c0 .1 0 .2-.1.3-.2.3-.4.4-.7.4h-2.6c-.1 0-.2 0-.2.1v3.5c0 .1.1.1.2.1h1.9c.1 0 .2 0 .3-.1V28.3c0-.2.1-.3.2-.4.1-.1.3-.2.5-.2s.3.1.5.2c.1.1.2.2.2.4v3.1z" fill="#f7b100"/></svg>