<svg xmlns="http://www.w3.org/2000/svg" viewBox="0 0 40 40"><path d="M28 39.4c-4.4 0-8-3.6-8-8s3.6-8 8-8 8 3.6 8 8-3.6 8-8 8zm5.2-10.7c-.4-.4-1.2-.4-1.6 0l-4 4-2.4-2.4c-.4-.4-1.2-.4-1.6 0-.4.4-.4 1.2 0 1.6l3.2 3.2c.4.4 1.2.4 1.6 0l4.8-4.8c.4-.5.4-1.2 0-1.6zm-5.7-7.5H10.3c-.9 0-1.7.8-1.7 1.7 0 .9.8 1.7 1.7 1.7h10.1c-.9 1-1.6 2.1-2 3.4h-8c-.9 0-1.7.8-1.7 1.7 0 .9.8 1.7 1.7 1.7h7.4c0 2.1.6 4.1 1.7 5.7H8.6c-2.5 0-4.6-2-4.6-4.6V9.7c0-2.5 2-4.6 4.6-4.6h2.3v4.6h16V5.1h2.3c2.5 0 4.6 2 4.6 4.6v13.2c-1.6-1.1-3.6-1.7-5.7-1.7-.3-.1-.4 0-.6 0zm1.6-5.2c0-.9-.8-1.7-1.7-1.7H10.3c-.9 0-1.7.8-1.7 1.7 0 .9.8 1.7 1.7 1.7h17.1c1 0 1.7-.8 1.7-1.7zM17.7 7.4h-4.6V2.9h2.3c0-1.3 1-2.3 2.3-2.3H20c1.3 0 2.3 1 2.3 2.3h2.3v4.6h-6.9zm1.2-4.5c-.6 0-1.1.5-1.1 1.1 0 .6.5 1.1 1.1 1.1.6 0 1.1-.5 1.1-1.1 0-.6-.5-1.1-1.1-1.1zm0 0" fill="#333"/></svg>