<svg xmlns="http://www.w3.org/2000/svg" viewBox="0 0 44 44"><path d="M41.8 38.7c0 .6-.1 1.2-.4 1.7-.2.5-.5 1-.8 1.4-.4.4-.8.7-1.3 1-.5.2-1.1.4-1.7.4H6.3c-.6 0-1.2-.1-1.7-.4-.6-.2-1.1-.5-1.4-1-.4-.4-.7-.8-1-1.4-.2-.5-.4-1.1-.4-1.7V14.8c0-1.2.5-2.3 1.3-3.1.8-.8 1.9-1.3 3.1-1.3h31.4c1.2 0 2.3.5 3.1 1.3.8.8 1.3 1.9 1.3 3.1v6.5H31c-1.2 0-2.3.4-3.1 1.2-.8.8-1.3 1.8-1.3 3.1 0 .8.2 1.6.5 2.2.2.6.7 1.1 1.3 1.4.6.5 1.4.7 2.5.7h10.9v8.8zM35.3 8.2H13.6c1.7-.8 3.4-1.8 4.9-2.6l4-2.2c1.3-.7 2.3-1.2 3.1-1.7 1.1-.6 2.2-.8 3-.8.8 0 1.7.2 2.3.5.7.4 1.3.8 1.8 1.4l2.6 5.4zm-6.5 17.4c0-.6.2-1.1.6-1.6.4-.4 1-.6 1.6-.6.6 0 1.1.2 1.6.6.4.4.6 1 .6 1.6 0 .6-.2 1.1-.6 1.6-.4.5-1 .6-1.6.6-.6 0-1.1-.2-1.6-.6-.3-.4-.6-.9-.6-1.6zm0 0" fill="#333"/></svg>