<svg version="1.1" id="图层_1" xmlns="http://www.w3.org/2000/svg" x="0" y="0" viewBox="0 0 44 44" xml:space="preserve"><style>.st0{fill:#f15a4f}</style><path class="st0" d="M43.1 19.6H.9v14.7c0 1.9 1.6 3.5 3.6 3.5h35.1c2 0 3.6-1.6 3.6-3.5l-.1-14.7zm-29.4 9.5c-.2.2-.6.4-.9.4-.3 0-.7-.1-.9-.4l-1.6-1.6v6.1c0 .7-.6 1.3-1.4 1.3-.7 0-1.4-.6-1.4-1.3v-6.1L6 29.1c-.3.3-.6.4-.9.4-.5 0-1-.3-1.2-.8s-.1-1.1.3-1.4L9 22.5l4.8 4.8c.4.5.4 1.3-.1 1.8zM42.4 14.6h.7V9.7c0-1.9-1.6-3.5-3.6-3.5h-35C2.5 6.2.9 7.8.9 9.7v4.9h41.5z"/></svg>