<svg xmlns="http://www.w3.org/2000/svg" viewBox="0 0 34 34"><path d="M16.7 10c-3.9 0-7.1 3.2-7.1 7.1 0 3.9 3.2 7.1 7.1 7.1 3.9 0 7.1-3.2 7.1-7.1S20.6 10 16.7 10zm0 12.3c-2.9 0-5.2-2.3-5.2-5.2 0-2.9 2.3-5.2 5.2-5.2 2.9 0 5.2 2.3 5.2 5.2 0 2.9-2.3 5.2-5.2 5.2zm15.7-8.6c-.7-.1-2.7-.5-3.3-1.7-.5-1 .3-2.5 1-3.5l.5-.5-4.4-4.7-.7.5c-.6.5-2.6 1.6-3.7 1.1-.9-.4-1.2-2-1.2-3.2V.8h-7v.9c0 1.2-.3 2.8-1.2 3.2-1.1.5-3.1-.6-3.7-1.1l-.9-.5L3.4 8l.5.6c.7 1 1.5 2.5 1 3.5-.5 1.2-2.5 1.6-3.3 1.7l-.9.1v6.3l.9.1c.7.1 2.7.5 3.3 1.7.5 1-.3 2.5-1 3.5l-.5.5 4.4 4.7.7-.5c.6-.5 2.6-1.6 3.7-1.1.9.4 1.2 2 1.2 3.2v.9h7v-.9c0-1.2.3-2.8 1.2-3.2 1.1-.5 3.1.6 3.7 1.1l.7.5 4.4-4.7-.5-.6c-.7-1-1.5-2.5-1-3.5.5-1.2 2.6-1.6 3.3-1.7l.9-.1v-6.3l-.7-.1zm-1 3v1.8c-1.2.2-3.2.9-3.9 2.6-.6 1.3-.3 2.9.8 4.7l-2.2 2.4c-1.1-.7-3.2-1.7-5-.8-1.2.6-2 1.9-2.2 4h-3.5c-.2-2-1-3.4-2.2-4-1.8-.8-3.9.2-5 .8L6 25.8c1.1-1.8 1.4-3.4.8-4.7-.8-1.7-2.8-2.4-3.9-2.6v-3c1.2-.2 3.2-.9 3.9-2.6.6-1.3.3-2.9-.8-4.7l2.2-2.4c1.1.7 3.2 1.7 5 .8 1.2-.6 2-1.9 2.2-4h3.5c.2 2 1 3.4 2.2 4 1.8.8 3.9-.2 5-.8l2.2 2.4c-1.1 1.8-1.4 3.4-.8 4.7.8 1.7 2.8 2.4 3.9 2.6v1.2zm0 0" fill="#333"/></svg>