<svg version="1.1" id="图层_1" xmlns="http://www.w3.org/2000/svg" x="0" y="0" viewBox="0 0 48 48" xml:space="preserve"><style>.st0{fill:#ff3838}</style><path class="st0" d="M43.9 15.5c-1.1-2.6-2.7-4.8-4.6-6.9-2-2-4.3-3.5-6.9-4.6C29.7 3 27 2.4 24 2.4c-2.9 0-5.7.6-8.4 1.6-2.5 1.1-4.8 2.7-6.8 4.7S5.3 13 4.2 15.6C3 18.3 2.5 21.1 2.5 24c0 2.9.6 5.7 1.6 8.4 1.1 2.6 2.7 4.8 4.6 6.9 2 2 4.3 3.5 6.9 4.6 2.7 1.1 5.4 1.6 8.4 1.6 3.5 0 7.1-.8 10.2-2.6.5-.3.7-.9.4-1.4-.3-.5-.9-.7-1.4-.4-2.9 1.4-6 2.3-9.1 2.3-10.9.1-19.6-8.7-19.6-19.4S13.3 4.4 24 4.4 43.5 13.2 43.5 24c0 4.7-1.6 9.2-4.7 12.7L31 29.1l-1.4 1.4 8.5 8.3c.1.1.2.1.3.2.4.2.9.1 1.2-.2 3.8-3.9 6-9.2 6-14.9-.1-2.8-.6-5.7-1.7-8.4z"/><path class="st0" d="M31.2 28.9l2.7-2.7c.6-.6.9-1.3.9-2.3 0-.8-.3-1.6-.9-2.3L26.2 14c-.6-.6-1.3-.9-2.3-.9-.9 0-1.6.3-2.3.9L14 21.7c-.6.6-.9 1.3-.9 2.3 0 .8.3 1.6.9 2.3l7.7 7.7c.6.6 1.3.9 2.3.9.9 0 1.6-.3 2.3-.9l3-3 1.9-2.1z"/></svg>
