<svg xmlns="http://www.w3.org/2000/svg" viewBox="0 0 48 48"><path d="M43.9 15.5c-1.1-2.6-2.7-4.8-4.6-6.9-2-2-4.3-3.5-6.9-4.6-2.7-1-5.5-1.6-8.4-1.6s-5.9.5-8.5 1.6C13 5.1 10.6 6.7 8.7 8.7c-2 2-3.5 4.3-4.6 6.9C3 18.3 2.5 21.1 2.5 24S3 29.8 4 32.5c1.1 2.6 2.7 4.8 4.6 6.9 2 2 4.3 3.5 6.9 4.6 2.7 1.1 5.5 1.6 8.4 1.6 3.5 0 7.1-.8 10.2-2.6.5-.3.7-.9.4-1.4-.3-.5-.9-.7-1.4-.4-2.9 1.4-6 2.3-9.2 2.3-10.8 0-19.6-8.7-19.6-19.6S13.2 4.4 24 4.4 43.6 13.1 43.6 24c0 4.7-1.6 9.3-4.7 12.8L31 29.1l3-3c.6-.6.9-1.3.9-2.3 0-.8-.3-1.6-.9-2.3l-7.7-7.7c-.6-.6-1.3-.9-2.3-.9-.8 0-1.6.3-2.3.9L14 21.6c-.6.6-.9 1.3-.9 2.3 0 .8.3 1.6.9 2.3l7.7 7.7c.6.6 1.3.9 2.3.9.8 0 1.6-.3 2.3-.9l3.3-3.3 8.6 8.3c.1.1.2.1.3.2.4.2.9.1 1.2-.2 3.8-4 6-9.3 6-14.9-.2-2.9-.7-5.8-1.8-8.5zM24.7 32.4c-.2.2-.4.3-.7.3s-.5-.1-.7-.3l-7.7-7.7c-.2-.2-.3-.4-.3-.7s.1-.5.3-.7l7.7-7.7c.2-.2.4-.3.7-.3.3 0 .5.1.7.3l7.7 7.7c.2.2.3.4.3.7 0 .3-.1.5-.3.7l-7.7 7.7z" fill="#333"/></svg>