<svg version="1.1" id="图层_1" xmlns="http://www.w3.org/2000/svg" x="0" y="0" viewBox="0 0 48 48" xml:space="preserve"><style>.st0{fill:#ff3838}</style><path class="st0" d="M43.7 42.4c-1.1-4.9-3.9-9.3-8-12.2-.5-.3-1.1-.2-1.5.2-.3.5-.2 1.1.2 1.5 3.7 2.6 6.2 6.5 7.2 10.8v.1H6.9v-.1c1.6-7.8 8.3-13.6 16.2-14.1-1.7-.1-3.2-.6-4.6-1.4-.3.1-.6.2-1.1.3-2.1.7-4.1 1.9-5.8 3.4-3.5 2.8-5.9 6.9-6.8 11.4-.1.6 0 1.4.4 1.9s1 .8 1.8.8h34.6c.7 0 1.4-.3 1.8-.8.3-.5.5-1.2.3-1.8z"/><path class="st0" d="M24.2 28.8C31.4 28.8 37 23 37 16c.1-7.2-5.7-13-12.8-13C17 3 11.4 8.8 11.4 15.8c0 5.1 2.8 9.4 7.1 11.5 1.4.7 3 1.1 4.6 1.4.3 0 .7.1 1.1.1z"/></svg>
