<svg xmlns="http://www.w3.org/2000/svg" viewBox="0 0 48 48"><path d="M45.3 22.1L26.5 3.3c-1.4-1.4-3.7-1.4-5 0L2.7 22.1c-.7.7-.8 1.7-.5 2.6.4.9 1.3 1.5 2.2 1.5h2v16c0 2 1.6 3.6 3.6 3.6h7.6c1.2 0 2.1-.9 2.1-2.1V32c0-.8.7-1.6 1.6-1.6h5.6c.8 0 1.6.7 1.6 1.6v11.6c0 1.2.9 2.1 2.1 2.1H38c2 0 3.6-1.6 3.6-3.6v-4.8c0-.5-.4-1-1-1s-1 .4-1 1v4.8c0 .8-.7 1.6-1.6 1.6h-7.6s-.1 0-.1-.1V32c0-2-1.6-3.6-3.6-3.6H21c-2 0-3.6 1.6-3.6 3.6v11.6s0 .1-.1.1H9.7c-.8 0-1.6-.7-1.6-1.6V25.5c0-.7-.6-1.4-1.4-1.4H4.3c-.2 0-.3-.1-.3-.2s-.1-.2.1-.4L22.9 4.7c.6-.6 1.6-.6 2.2 0l18.8 18.8c.1.1.1.3.1.4 0 .1-.1.2-.3.2H41c-.7 0-1.4.6-1.4 1.4v4.3c0 .5.4 1 1 1s1-.4 1-1v-3.7h2c.9 0 1.9-.6 2.2-1.5.4-.8.2-1.8-.5-2.5z" fill="#333"/></svg>