<svg version="1.1" id="图层_1" xmlns="http://www.w3.org/2000/svg" x="0" y="0" viewBox="0 0 48 48" xml:space="preserve"><style>.st0{fill:#333}</style><path class="st0" d="M43.5 18.7c-.6-.3-1.4-.3-2.1.1l-15.7 11-7.3-5.8c-1.1-.8-2.6-.8-3.7.1L4.3 33.9c-.6.5-1.1 1.4-1.1 2.3v4.5c0 1.6 1.3 2.9 2.9 2.9h35.4c1.6 0 2.9-1.3 2.9-2.9v-.5c0-.5-.4-1-1-1-.5 0-1 .4-1 1v.5c0 .5-.4 1-1 1H6.2c-.5 0-1-.4-1-1v-4.5c0-.3.1-.5.3-.8l10.4-9.7c.3-.3.9-.3 1.2 0l7.4 5.9c.5.4 1.4.4 2 0l16-11.1v11.7c0 .5.4 1 1 1 .5 0 1-.4 1-1V20.5c.1-.8-.3-1.5-1-1.8zM44.4 4.8c-.2-.3-.6-.5-1.1-.4l-5.2.8c-.7.1-1.2.8-1.1 1.5.1.6.8 1.2 1.5 1.1l1.1-.1L26 19.2l-7-5.7c-.7-.4-1.4-.4-2.1.1L5 23.5c-.4.3-.4 1-.1 1.4.2.2.4.3.8.3.2 0 .4-.1.6-.2L18 15.3l7.1 5.7c.5.4 1.4.4 2 0L41.5 8.8l-.4 2c-.1.6.3 1.4 1.1 1.5h.2c.6 0 1.2-.4 1.3-1.1l1-5.2c.2-.4-.1-.8-.3-1.2z"/></svg>