<svg version="1.1" id="图层_1" xmlns="http://www.w3.org/2000/svg" x="0" y="0" viewBox="0 0 48 48" xml:space="preserve"><style>.st0{fill:#ff3838}</style><path class="st0" d="M44.4 4.8c-.2-.3-.6-.5-1.1-.4l-5.2.8c-.7.1-1.2.8-1.1 1.5.1.6.8 1.2 1.5 1.1l1.1-.2-13.7 11.6-7-5.7c-.6-.4-1.4-.4-2.1.1L5 23.5c-.4.3-.4 1-.1 1.4.2.2.4.3.8.3.2 0 .4-.1.6-.2L18 15.3l7.1 5.7c.5.4 1.4.4 2 0L41.5 8.8l-.4 2c-.1.6.3 1.4 1.1 1.5h.2c.6 0 1.2-.4 1.3-1.1l1-5.2c.1-.5-.1-.8-.3-1.2zM43.5 18.7c-.6-.3-1.4-.3-2.1.1l-15.7 11-7.3-5.8c-1.1-.8-2.6-.8-3.7.1L4.3 33.8c-.6.5-1.1 1.4-1.1 2.3v4.5c0 1.8 1.3 3.1 2.9 3.1h35.4c1.6 0 2.9-1.3 2.9-2.9V20.7c.2-1-.2-1.7-.9-2z"/></svg>
