<svg version="1.1" id="图层_1" xmlns="http://www.w3.org/2000/svg" x="0" y="0" viewBox="0 0 48 48" xml:space="preserve"><style>.st0{fill:#ff3838}</style><path class="st0" d="M43.4 12.4c.6 0 1-.5 1-1V6.7c0-1.7-1.4-3.1-3.1-3.1H6.7C5 3.6 3.6 5 3.6 6.7v34.8c0 1.7 1.4 3.1 3.1 3.1h34.8c1.7 0 3.1-1.4 3.1-3.1v-21c0-.6-.5-1-1-1-.6 0-1 .5-1 1v21c0 .6-.5 1-1 1H6.7c-.6 0-1-.5-1-1V6.7c0-.6.5-1 1-1h34.8c.6 0 1 .5 1 1v4.8c-.1.5.4.9.9.9z"/><path class="st0" d="M37.1 18l-10.7-5.8c-1-.6-2.6-.6-3.6 0L12.1 18c-.7.4-1.1 1-1.1 1.6s.4 1.2 1.1 1.6L22.8 27c.5.3 1.1.4 1.8.4.6 0 1.3-.1 1.8-.4l10.7-5.8c.7-.4 1.1-1 1.1-1.6 0-.6-.4-1.2-1.1-1.6z"/><path class="st0" d="M38 25.3c-.3-.5-.9-.7-1.4-.4l-11.2 5.9c-.5.2-1.3.2-1.8 0l-11.2-5.9c-.5-.3-1.1-.1-1.4.4-.3.5-.1 1.1.4 1.4l11.2 5.9c.5.3 1.2.4 1.9.4s1.3-.2 1.9-.4l11.2-5.9c.5-.3.7-.9.4-1.4z"/><path class="st0" d="M36.6 30.4l-11.2 5.9c-.5.2-1.3.2-1.8 0l-11.1-5.9c-.5-.3-1.1-.1-1.4.4-.3.5-.1 1.1.4 1.4l11.2 5.9c.5.3 1.2.4 1.9.4s1.3-.2 1.9-.4l11.2-5.9c.5-.3.7-.9.4-1.4-.3-.5-1-.7-1.5-.4z"/></svg>
