<svg version="1.1" id="图层_1" xmlns="http://www.w3.org/2000/svg" x="0" y="0" viewBox="0 0 48 48" xml:space="preserve"><style>.st0{fill:#333}</style><path class="st0" d="M43.3 12.5c.5 0 1.1-.4 1.1-1.1V6.7c0-1.7-1.4-3.1-3.1-3.1H6.7C5 3.6 3.6 5 3.6 6.7v34.6c0 1.7 1.4 3.1 3.1 3.1h34.6c1.7 0 3.1-1.4 3.1-3.1V20.5c0-.5-.4-1.1-1.1-1.1-.5 0-1.1.4-1.1 1.1v20.8c0 .5-.4 1.1-1.1 1.1H6.7c-.5 0-1.1-.4-1.1-1.1V6.7c0-.5.4-1.1 1.1-1.1h34.6c.5 0 1.1.4 1.1 1.1v4.7c-.2.5.4 1.1.9 1.1z"/><path class="st0" d="M38.3 19.5c0-.6-.4-1.3-1.1-1.6l-10.9-5.7c-1.1-.5-2.6-.5-3.6 0L11.9 18c-.6.3-1.1 1-1.1 1.6s.4 1.3 1.1 1.6L22.7 27c.5.3 1.2.4 1.8.4.6 0 1.3-.1 1.8-.4l10.8-5.8c.8-.4 1.2-1 1.2-1.7zm-12.9 5.6c-.4.2-1.3.2-1.7 0l-10.5-5.6 10.5-5.6c.4-.2 1.3-.2 1.7 0l10.5 5.6-10.5 5.6z"/><path class="st0" d="M37.5 25.4c-.2-.5-.9-.6-1.4-.4l-10.8 5.8c-.4.2-1.3.2-1.7 0L12.9 25c-.5-.2-1.1-.1-1.4.4-.2.5-.1 1.1.4 1.4l10.8 5.7c.5.3 1.2.4 1.8.4.6 0 1.3-.1 1.8-.4l10.8-5.8c.5-.3.8-.8.4-1.3z"/><path class="st0" d="M36.1 30.6l-10.8 5.8c-.4.2-1.3.2-1.7 0l-10.8-5.8c-.5-.2-1.1-.1-1.4.4-.2.5-.1 1.1.4 1.4l10.8 5.7c.5.3 1.2.4 1.8.4.6 0 1.3-.1 1.8-.4L37 32.3c.5-.2.6-.9.4-1.4-.1-.4-.7-.6-1.3-.3z"/></svg>