<svg xmlns="http://www.w3.org/2000/svg" viewBox="0 0 48 48"><path d="M43.4 42.2c-1-4.9-3.9-9.2-8-12.1-.5-.3-1.1-.2-1.5.2-.3.5-.2 1.1.2 1.5 3.7 2.6 6.2 6.5 7.1 10.9v.1H6.6v-.1c1.7-8.1 8.8-13.9 17.1-14.1h.4c3.4 0 6.6-1.4 9-3.8s3.8-5.6 3.8-9-1.4-6.6-3.8-9S27.3 3 24 3s-6.6 1.4-9 3.8-3.8 5.6-3.8 9 1.4 6.6 3.8 9c.9.9 2.1 1.8 3.4 2.4-.4.1-.7.2-1.1.4-2.1.7-4.1 1.9-5.8 3.4-3.5 2.8-6 6.9-6.8 11.3-.1.6 0 1.4.4 1.9.3.5.9.8 1.7.8h34.5c.7 0 1.4-.3 1.8-.8.3-.6.4-1.4.3-2zm-30-26.4c0-5.9 4.7-10.7 10.6-10.7s10.6 4.7 10.6 10.6c0 5.8-4.7 10.6-10.5 10.6h-.4c-5.8-.1-10.3-4.8-10.3-10.5z" fill="#333"/></svg>