<svg xmlns="http://www.w3.org/2000/svg" viewBox="0 0 48 48"><path d="M45.2 22.2L26.5 3.3c-1.4-1.4-3.7-1.4-5 0L2.7 22.1c-.7.7-.8 1.7-.5 2.6.4.9 1.3 1.5 2.2 1.5h2v16c0 2 1.6 3.5 3.5 3.5h27.9c2 0 3.5-1.6 3.5-3.5v-9.9c0-.5-.4-1-.9-1-.6 0-1 .4-1 1v9.9c0 .8-.7 1.6-1.6 1.6h-7.5V31.4c0-1.6-1.3-2.8-2.8-2.8h-7c-1.6 0-2.8 1.3-2.8 2.8v12.3H9.9c-.8 0-1.6-.7-1.6-1.6V25.5c0-.7-.6-1.4-1.4-1.4H4.4c-.2 0-.3-.1-.3-.2s-.1-.2.1-.4L22.9 4.8c.6-.6 1.6-.6 2.2 0l18.8 18.8c.1.1.1.3.1.4 0 .1-.1.2-.3.2h-3c-.5 0-1 .4-1 1 0 .5.4 1 1 1h2.9c.9 0 1.9-.6 2.2-1.5.3-.9.1-1.9-.6-2.5z" fill="#ff3838"/></svg>
